<?xml version="1.0" encoding="utf-8"?>
<!-- Generator: Adobe Illustrator 22.1.0, SVG Export Plug-In . SVG Version: 6.00 Build 0)  -->
<svg version="1.1" xmlns="http://www.w3.org/2000/svg" xmlns:xlink="http://www.w3.org/1999/xlink" x="0px" y="0px"
	 viewBox="0 0 330 333.6" style="enable-background:new 0 0 330 333.6;" xml:space="preserve">
<style type="text/css">
	.st0{fill:#7DD0EE;}
	.st1{fill:none;}
	.st2{fill:#4E9CD5;}
	.st3{fill:#FFFFFF;}
	.st4{opacity:0.6;fill:none;stroke:#000000;stroke-width:0.5;}
	.st5{fill:none;stroke:#416C91;stroke-width:0.2;}
	.st6{fill:#954C9E;}
	.st7{fill:#A84366;}
	.st8{font-family:'MyriadPro-Regular';}
	.st9{font-size:10px;}
</style>
<g id="Layer_2">
	<g>
		<path class="st0" d="M291.5,235.7c-0.2,0.2-0.3,0.5-0.2,0.7C291.3,238.1,291.4,237.8,291.5,235.7z"/>
		<path class="st0" d="M172.9,321.2l0.4,0.3c0.3-0.1,0.6-0.2,0.8-0.3c0-0.1-0.1-0.2-0.1-0.4C173.6,320.9,173.2,321.1,172.9,321.2z"
			/>
		<path class="st0" d="M66.6,80.4c-0.2,0.2-0.4,0.4-0.7,0.7l-0.7,0.7C66.7,82.6,67.1,82.2,66.6,80.4z"/>
		<path class="st0" d="M96.1,87.3c0.3,1.5,0.7,0.7,1.2-2c-0.2,0.2-0.4,0.4-0.7,0.7C96.2,86.4,96,86.9,96.1,87.3z"/>
		<path class="st0" d="M91.6,100.4c-0.2,0.2-0.3,0.5-0.2,0.7C91.4,102.7,91.5,102.4,91.6,100.4z"/>
		<path class="st0" d="M89.7,105.4c-0.2,0.2-0.4,0.4-0.7,0.7l-0.7,0.7C89.8,107.7,90.2,107.2,89.7,105.4z"/>
		<path class="st0" d="M79.9,107.3c3,1.1,3.8,0.1,2.7-3c0.1,1.4-0.6,2.3-1.8,2.7L79.9,107.3z"/>
		<path class="st0" d="M79.8,109.2c1.2,2.4,1.3,2.3,0.2-0.5C79.8,108.9,79.7,109.2,79.8,109.2z"/>
		<path class="st0" d="M86.8,102.7c-1,2.2-1.1,3.1,0.1,2.7C88.9,104.7,88.9,103.8,86.8,102.7z"/>
		<path class="st0" d="M83.6,109.4c2.1,2.4,2.3,1.6,0.6-2.3C83.3,108.1,83.1,108.9,83.6,109.4z"/>
		<path class="st0" d="M57.5,141l-0.3,0.4C59.8,142.4,60,142.3,57.5,141z"/>
		<path class="st0" d="M67.9,88.6L67,88.8c-0.4-1.7-1.3-2.5-3-2.7c-0.2,0.2-0.3,0.5-0.3,0.8c-0.1,2.8,1.1,4.4,3.4,4.7
			c0.6,0,0.8-0.1,0.9-0.4C69.2,89.1,69.1,88.2,67.9,88.6z"/>
		<path class="st0" d="M66,83.9l-0.7,0.7c1.9,0.3,2.8-0.7,2.7-3C67.4,82.4,66.7,83.2,66,83.9z"/>
		<path class="st0" d="M55.8,106.9l0.7-0.6c-0.6-0.2-1.6-0.1-2.8,0.1C52.5,108.8,53.2,109,55.8,106.9z"/>
		<path class="st0" d="M24.6,235.3c-0.2-0.2-0.4-0.4-0.7-0.7c-0.7,0.8-0.4,1.4,0.9,1.7c0.2,0.1,0.4-0.1,0.6-0.3
			C25.1,235.8,24.9,235.6,24.6,235.3z"/>
		<path class="st0" d="M33.8,249c-0.2-0.2-0.4-0.4-0.7-0.7c0.1,0.5,0.1,0.9,0.3,1.3c0.2,0.3,0.3,0.6,0.5,0.8
			c0.3-0.3,0.5-0.5,0.7-0.7C34.3,249.5,34.1,249.3,33.8,249z"/>
		<path class="st0" d="M39,255.2c-0.2-0.2-0.5-0.5-0.7-0.7c-1.5-1.3-3-2.7-4.4-4c1,2.1,2.3,4.1,4.2,5.8c3.1,3.1,3.7,3.1,1.4,0.1
			C39.2,256,39,255.6,39,255.2z"/>
		<path class="st0" d="M238.4,307.7c-0.2,0.2-0.3,0.5-0.2,0.7C238.2,310,238.3,309.8,238.4,307.7z"/>
		<path class="st0" d="M234.2,309.3c-0.2,0.2-0.4,0.4-0.7,0.7l-0.7,0.7c0.5,0.5,1.1,0.4,1.8,0C237.1,309,237,308.5,234.2,309.3z"/>
		<path class="st0" d="M229.6,302.5l-0.3,0.4C231.2,304.6,231.4,304.4,229.6,302.5z"/>
		<path class="st0" d="M232.6,305.1c-0.2,0.2-0.3,0.5-0.2,0.7C232.4,307.5,232.5,307.2,232.6,305.1z"/>
		<path class="st0" d="M152,17.4c-0.3,0.3-0.3,0.5-0.2,0.7C151.8,19.7,151.9,19.5,152,17.4z"/>
		<path class="st0" d="M161.6,26.1c0.3,0.3,0.5,0.5,0.7,0.7c0.3-0.3,0.5-0.4,0.6-0.2c1.6,0.2,1.6-0.4,0-1.9
			c-0.3,0.3-0.4,0.4-0.7,0.7C162,25.7,161.9,25.9,161.6,26.1z"/>
		<path class="st0" d="M136.5,4.7l-0.3,0.4C139.6,6.5,139.7,6.4,136.5,4.7z"/>
		<path class="st0" d="M122.5,8.2c-0.2,0.2-0.3,0.5-0.5,0.8l-0.2,0.6C124.7,9.3,124.9,8.8,122.5,8.2z"/>
		<path class="st0" d="M116.2,10.7c-0.2,0.2-0.3,0.5-0.2,0.7C116,13,116.1,12.7,116.2,10.7z"/>
		<path class="st0" d="M109.7,13.5c1.9,1.7,2.1,1.6,0.3-0.4L109.7,13.5z"/>
		<path class="st0" d="M50.2,50.7c1.9,0.4,2.9-0.6,2.7-3c-0.7,0.7-1.3,1.5-2,2.2L50.2,50.7z"/>
		<path class="st0" d="M25.4,237.4l-0.3,0.4C27,239.5,27.1,239.4,25.4,237.4z"/>
		<path class="st0" d="M17.4,174.8c-0.2,0.2-0.3,0.5-0.2,0.7C17.1,177.1,17.3,176.9,17.4,174.8z"/>
		<g>
			<g>
				<g>
					<path class="st0" d="M238,40.1c0.2,0.2,0.5,0.5,0.7,0.7c0.6,1.3,1.1,2.8,1.7,4.1l0.3-0.4c2.4,2.3,5.7,4.1,9.8,5.5
						c0.3-0.3,0.3-0.4,0.3-0.4c-4.3-4.5-7.9-8.4-10.8-11.9c-0.2-0.2-0.4-0.3-0.6-0.3l-0.8,0.3c-1-1.7-2.7-2.5-5-1.9
						c0-0.5-0.1-0.8-0.4-1c-0.2-0.2-0.6-0.4-1-0.5c-3.2-1-4.4-2.5-3.8-4.6c-0.2-0.2-0.4-0.4-0.7-0.5c-1.5-0.8-3.3-1.1-5.7-1.3
						c-0.3,0.3-0.3,0.4-0.3,0.4C225.5,34.6,231.1,38.4,238,40.1z M259.5,67c-0.2-0.2-0.4-0.5-0.5-0.6c-1.7-3.2-4.4-5.3-8-6.4
						c1.1,2.5,3.3,5.1,6.4,7.8c0.3,0.3,0.5,0.5,0.7,0.8c2.8,3.6,5.5,6,7.8,7.6c0.3,0.3,0.6,0.4,0.8,0.6c1.2,0.4,2.3-0.3,3.4-2.2
						C266.2,73.2,262.5,70.7,259.5,67z M222.7,45.1c-0.2-0.2-0.5-0.3-0.7-0.4c-3.5,0-7,0.3-10.6,0.9c-0.2-0.2-0.4-0.5-0.5-0.8
						c-0.2-0.7-1.5-1.2-3.8-1.9c-0.2-0.2-0.4-0.4-0.7-0.7c-1.1-0.9-2.4-1.5-4.1-1.9c0.3-0.3,0.9-1.2,1.1-1.1
						c0.5,0.2,1.1,0.2,1.6,0.3c2.6,0.2,4.3-0.7,4.8-2.4c0.3,0.3,0.5,0.3,0.7,0.2c1.5-0.1,2.9,0.4,4.3,1.6c0.3-0.3,0.5-0.4,0.6-0.2
						c2,0.2,3.9-0.1,5.7-0.8c-0.2-0.2-0.4-0.4-0.7-0.7c-2.2-1.7-4.3-2.4-6.5-1.8c-0.2-0.2-0.4-0.4-0.7-0.7c-0.8-1-2.7-1.4-5.8-1.1
						c0.3-0.3,0.4-0.4,0.3-0.6c-0.2-0.6-0.5-0.8-1-0.7c-1.2,0.1-2.3,0.2-3.5,0.2c1.6,2,1.5,2-0.4,0.3l0.3-0.4
						c-1.2,0-2.3-0.2-3.6-0.5c-0.3,0.3-0.4,0.4-0.7,0.7c-1.3,1.3-1.4,2.5-0.5,3.6c1,0.9,2,1.6,2.9,2.2c0.2,0.1-0.4,1.2-0.4,1.7
						c-1-0.1-2-0.2-3.2-0.2c0.3,0.3,0.5,0.5,0.5,0.8l0.2,0.6c2.9-0.1,4.6,1.3,5.2,4c-0.2-0.2-0.5-0.3-0.7-0.4c-4.1-0.7-7.4-2-10.1-4
						c-0.2-0.2-0.5-0.3-0.7-0.3c-2.6,0.1-5.3-0.6-8-2.1c-1.4,1.2-2.8,1.5-4.4,0.7c-2-0.9-2.8-0.5-2.6,1c0.3,0.3,0.5,0.3,0.8,0.3
						c3.7-0.2,7.4,0.3,11.3,1.2l0.3-0.4c1,0.9,1.9,1.9,2.6,3.1c-0.3,0.3-0.3,0.4-0.4,0.3c-4.6-2.3-8.9-2.8-13.1-1.8
						c-1.3-1.3-2.4-1.9-3.6-1.9c-0.4,0-0.6,0.1-0.8,0.2c-0.6,2.7-2.3,3.6-4.7,2.9c-0.2,0.2-0.3,0.4-0.3,0.6c0.8,2.6,1.1,5.3,0.7,7.9
						c-0.2,0.2-0.4,0.4-0.8,0.5l-0.6,0.2c0,0.5-1.1,1.6-1.4,2.2c0.5,0.3,0.5,0.6,0.8,0.6c0.4,0.4,3.4-1.6,4.8-2.4l0.4,0.3
						c3.9-4.9,8.9-6.7,15-5.3c1,2.3,2.9,3,5.7,2.3c3.1-0.9,5-0.5,5.8,1.3c0.8,0.2,1.4,0.4,2.1,0.5c3.4,0.3,4.6-0.4,3.4-2.2
						c0.3-0.3,0.5-0.4,0.8-0.4c3.7-0.3,7.5,0.3,11.4,1.9c0.3-0.3,0.5-0.4,0.6-0.2c3.4,0.4,6.7,0.1,9.9-1c-0.2-0.2-0.5-0.5-0.5-0.8
						C226.2,47.6,224.6,45.7,222.7,45.1z M179.9,44.7l0.3-0.4C181.9,46.3,181.8,46.5,179.9,44.7z M189.8,45.7l0.3-0.4
						C191.8,47.3,191.7,47.4,189.8,45.7z M220.3,46.3l0.3-0.4C222.3,48,222.2,48,220.3,46.3z M251.1,76.3c-3.1-2.1-6.3-5.1-9.4-9.2
						c-2.6-3.2-5.9-6.4-10-9.7c0.2,2.1,1.4,3.8,3.3,5.3c1.8,1.3,3.9,3.5,6.1,6.6c1.1,1.5,2.2,2.8,3.2,4.2c0.9,1.4,1.9,2.7,2.5,4.1
						c0.8,1.4,1.8,2.6,2.9,3.5l0,0l5.3,5.1l6.2,3.6l-8.1-8.6C252.5,79.5,251.8,77.9,251.1,76.3z"/>
				</g>
			</g>
			<g>
				<path class="st0" d="M29.4,145.2c2.3-2.8,2.6-4.7,1.2-5.8c-0.3-0.1-0.5-0.3-0.8-0.6c1.9-4.3,3.6-8.6,5.2-12.9
					c0.1-0.3,0.3-0.6,0.5-0.8c4.8-0.9,8.3-3.9,10.5-9.2c0-0.1-0.1-0.2-0.4-0.5c2.7-1.3,3.8-2.7,3.3-4.4l0.7,0c1.4-0.1,2.1-0.8,2-2.2
					c0.4-3.7-0.7-3.9-3.2-0.2l-0.4-0.3c0.6-3.4,1.4-5.7,2.6-7.1c0.2-0.4,0.4-0.6,0.6-0.8c3-0.1,5.2-1.9,6.7-5c0.1-0.1,0.2-0.2,0.5,0
					l-0.3,0.4c-0.3,2.6,0.5,3.8,2.3,3.4l-0.7,0.7c-1.4,1.7-1.4,2.1,0.1,1.4c2.5-2,3.6-3.9,3.3-5.8l0.6,0.2c0.4,0.1,0.6,0.3,0.8,0.5
					c-0.7-2.5-1.5-4.6-2.5-6.2c-0.2-0.3-0.4-0.5-0.7-0.7c1.1-1.3,1.7-2.6,1.9-4.2c0.2-0.9,0.4-1.6,0.4-2.4c0.4-2.2-0.2-2.1-2,0.2
					c-2.3-1.3-2-2.8,1.1-4.4c0.3-0.2,0.5-0.5,0.7-0.7c-2.3-0.3-2.1-1.9,0.9-4.7c0.2-0.2,0.4-0.4,0.7-0.7c1.3-1.9,2.7-3.7,4.3-5.4
					c0.6,0.9,1,1.7,1,2.6c0.3-0.2,0.6-0.3,0.9-0.5c-0.2-1.4,0.5-2.8,1.9-4.1c0.2-0.2,0.4-0.4,0.4-0.4c0.4-2.8,1.9-5.7,4.5-8.6
					c3.4-1.2,5.5-2.8,6.5-4.8c0-0.1-0.1-0.2-0.4-0.5c2.4,0.3,4.7,0.1,6.9-0.8c0.6-0.2,1.2-0.4,1.7-0.6c0.2-0.1,0.4,0.1,0.6,0.3
					c-1.3,2.3-0.4,2.4,2.8-0.1c0.1-0.1,0.2-0.1,0.3-0.2c1.9-1,2.5-0.8,1.9,0.8c-2,3.1-0.8,3.2,3.1,0.3c0.1-0.1,0.2,0.1,0.4,0.3
					c0.3-0.3,0.5-0.5,0.7-0.7c0.3-0.3,0.5-0.5,0.7-0.7c2.1,1.1,2.3,2.1,0.7,3.1c-0.1,0-0.3,0-0.6-0.3c-0.2,0.2-0.4,0.4-0.7,0.7
					c0.3,0.3,0.4,0.5,0.5,0.7c0.2,2.1-0.6,4.3-2.9,6.5c0.3,0.3,0.5,0.5,0.7,0.7c0.4,0.7,0.8,1.3,1.1,1.9c0.7-0.9,1.5-1.8,2.8-2.5
					c11-6.5,25.3-7.6,33-17.9c-1.3-0.2-1.9-1.5-1.8-3.9c3.2,2,6.3,2.6,9.4,2c3-0.5,6.2-0.1,9.2,1.3c-0.3,0.1-0.7,0.3-1,0.5
					c1,0.1,2,0,3-0.1c-0.1-0.2-0.2-0.3-0.2-0.5c-0.4-1.8-0.1-3.7,0.8-5.6c-0.5-0.7,0.3-1.4,2.1-2l0.6-0.2c-1.7-1.1-3.5-1.3-5.7-0.4
					c-0.2,0.2-0.4,0.4-0.7,0.6c-2.4,1.2-2.9,0.8-1.5-1.2c-1.2-0.8-2.4-0.6-3.7,0.7c-0.9,0.9-2.1,1.4-3.3,1.7c-0.4,0-0.8,0.1-1.2,0.3
					c-4.1,0.8-6-0.3-6-3.4c-0.2-0.2-0.4-0.4-0.8-0.5c-2.8-0.6-5.6-1-8.5-1.2c0-0.5-0.1-0.8-0.4-1c-0.4-0.4-0.9-0.5-1.1-0.2
					c-1.9,1.6-2.6,0.5-2.2-3.5c0.3,0.3,0.6,0.4,0.9,0.5c1.4,0.6,1.4,0.2-0.2-1.3c0.3-0.3,0.5-0.4,0.6-0.3l0.9,0.2
					c0.9-1.2,2.5-2,4.8-2.4l-0.4-0.3c1.6-1.4,3.4-2.1,5.2-2c0.3-0.3,0.5-0.5,0.7-0.7c1.9-1.9,5-2.4,9.1-1.2
					c-0.2,0.2-0.4,0.4-0.8,0.5l-0.6,0.2c1.8,1.9,3.6,1.5,5.6-1c-1.8-0.1-3.7-0.9-5.7-2.6c-0.7-0.7-2-0.8-3.6-0.5
					c0.6,1.3-0.1,1.8-1.8,1.6c-0.1-0.1-0.2-0.1-0.4-0.1c-2.5-0.4-3.7-1.7-3.6-4.1c-0.7,0.2-1.3,0.3-1.8,0.1
					c-1.2-0.4-2.1-0.5-3.1-0.2c-2.3,0.5-2.6,0.2-0.8-1c0.4-2.1-0.5-2.3-2.4-0.9c-0.3,0.3-0.7,0.5-1.1,0.6c-4.4,1.6-8.8,3.2-13.4,5
					c-0.8,0.3-1.6,0.7-2.1,1.2c-3.3,2.3-4.4,2.1-3.4-0.5c-0.4,0-0.9,0-1.4-0.1c-0.7-0.1-1.2,0-1.5,0.2c-2.5,2.5-3.9,2.5-4.1,0.2
					l0.3-0.4c-1.9,0.7-3.4,2.2-4.4,4.8c-1.1,0.3-2.3,0.6-3.5,0.7c-0.4,0.2-0.8,0.3-1.2,0.6c-1.7,1-3.5,1.9-5.3,2.7
					c-3.5,1.6-6.2,3.8-7.9,6.8c-4.8,1.9-9.6,5.2-14.3,10c-4.9,5.1-9.9,10-14.9,14.8l-0.7,0.7c0.7-1.7,0.2-2.6-1.6-2.8
					c-5.8,6.9-11.2,13.6-16,20.6c-0.2,0.2-0.4,0.4-0.7,0.7c0.8,1,0.5,2-0.9,3.2l0.4,0.3c-3,3.9-5.6,7.9-8,11.6
					c-0.1,0.3-0.3,0.5-0.6,0.8c0.6,4-0.3,8.1-2.4,12.4c-0.1,0.1,0,0.3,0.2,0.5c2.5,1.4,2.8,4.1,0.5,8.3c-0.2,0.4-0.4,0.9-0.6,1.4
					c-0.2,0.9-0.7,1.7-1.4,2.4c0.4,6.8,0.7,13.6,1,20.5c0.1,0.5,0.2,1,0.3,1.5c0.2,0.7,0.1,1.3-0.1,2.1c1.8-0.3,2.4-1.5,2.1-3.6
					c2,0.5,2.7,1.8,2.2,4.1l0.6-0.2c0.4-0.1,0.6-0.3,0.8-0.5c0.2,2.6,1.2,4.5,3,5.6c0.3,0.2,0.5,0.3,0.7,0.5
					c0.6-0.3,1.2-0.6,1.8-0.9C29.7,145.5,29.6,145.4,29.4,145.2z M154.6,34.3c-0.1-0.2,0-0.5,0.2-0.7
					C154.8,35.6,154.7,35.8,154.6,34.3z M116.5,44.6c3.9,0.7,3.6,2.2-0.8,4.3c-0.5,0.2-1.1,0.3-1.8,0.2
					C112.7,48.9,113.6,47.4,116.5,44.6z M120.1,17.6l0.2-0.6c0.1-0.3,0.3-0.6,0.5-0.8C123.1,16.6,122.9,17.1,120.1,17.6z M116,19.2
					l0.2-0.6c0.1-0.3,0.3-0.6,0.5-0.8C119,18.3,118.8,18.8,116,19.2z M114.3,19.3c-0.1-0.2,0-0.5,0.2-0.7
					C114.4,20.6,114.3,20.9,114.3,19.3z M59.7,48.1c-0.1-0.2,0-0.5,0.2-0.7C59.9,49.5,59.7,49.8,59.7,48.1z M64.1,47.3
					c-2.7,1.8-3.4,1.1-2.1-2.2c3.5-1.6,4.2-0.9,2.2,2L64.1,47.3z M29.4,87.1c0.4,2.1-0.5,4-2.5,5.7c0,0,0.1-0.1,0.1-0.4
					C27.6,90.6,28.3,88.9,29.4,87.1z M25.1,94.8l0.3-0.4C27.9,95.7,27.8,95.8,25.1,94.8z M96.8,25.1c-0.1-0.2,0-0.5,0.2-0.7
					C97,26.4,96.8,26.7,96.8,25.1z M103.6,23.7c-4.3,2.6-5.5,2.3-3.8-0.9c2.8-0.6,4.3-0.4,4.3,0.5L103.6,23.7z M106.6,21.8
					c-0.1-0.2,0-0.5,0.2-0.7C106.7,23.1,106.6,23.4,106.6,21.8z M56.9,86.5l0.4-0.9c0.2-0.4,0.3-0.8,0.2-1.3
					C59.9,85.4,59.8,86.1,56.9,86.5z M59.4,92.7l0.4-0.9c0.2-0.4,0.3-0.8,0.2-1.3C62.5,93.5,62.3,94.3,59.4,92.7z M59.2,88.5
					c0.3-0.3,0.5-0.5,0.7-0.7c1.5,1.8,1,2.3-1.3,1.5L59.2,88.5z M50.7,98.3c0.5-1.3,1.1-2.5,1.7-3.8c1.7,0.6,3.2-0.4,4.8-3.1l0,0.7
					c0.1,0.5,0,0.8,0.1,1.4c-2.1,2.8-4.4,4.6-6.8,5.3L50.7,98.3z M20.6,137.1c0.1-0.2-0.1-0.5-0.1-0.6l0.4,0.3L20.6,137.1z
					 M24.6,131.7c-0.9,0-0.7-0.4,0.5-1.2C27.5,131.3,27.3,131.7,24.6,131.7z"/>
				<path class="st0" d="M231.5,310.9c-0.7-0.7-2.1-0.4-3.9,0.8c-2,1.3-4,1.7-6,1.1c4.2-1.9,7.1-4.2,8.9-6.7
					c0.2-0.4,0.4-0.6,0.6-0.8c-2.2,0.8-3.1-0.1-2.7-2.7c0.1-0.2,0.2-0.5,0.4-0.7c7.5-4.3,13.9-8.8,19.3-13.5
					c7.2-6.3,13.5-11.9,18.8-16.7c4.1-3.7,7.1-7.3,9.2-10.7c0.7-1.2,1.3-1.9,2-2.4c0.2-0.1,0.4-0.3,0.7-0.6c2.5-3.5,2.4-4.2-0.5-1.7
					c-0.2-3.5,1.6-5.9,5-7l-0.3,0.4c-0.2,3.1,1.4,2.2,4.8-2.4c1.9-2.7,3-5.2,3.2-7.9c-2.3-0.3-4.6,0.7-6.8,3.3
					c-2.3,2.8-4.6,4.2-7,4.4c-2.3,0.1-2.3-1.2,0.2-3.9c0.3-0.3,0.4-0.6,0.7-0.9c0.7-1.1,1.5-2.2,2.3-3.2c-0.4-1.4-0.1-3,0.8-4.6
					c0.1-0.1,0-0.1-0.3-0.4c3.5-3.2,6.4-6,8.7-8.3c0.3-0.2,0.5-0.5,0.7-0.7c0.2-0.6,0.6-1.6,1.6-2.6l0.4,0.3
					c0.7-2.4,1.9-4.8,3.2-7.2l-0.6-0.2c-0.2-0.1-0.5-0.2-0.8-0.5c-2.3,0.6-4,1.3-5.1,2c-1.4,0.9-1.7,0.6-1.3-1
					c0.2-0.3,0.3-0.5,0.5-0.7c-2.1,1.1-4.2,2.3-6.3,3.5c-3.5,4.2-7.1,8.2-10.8,11.8c-0.2,0.2-0.4,0.4-0.7,0.7
					c-0.9,1-1.9,1.4-3.1,1.2c0.5-1.4,0.8-2.7,0.8-4c-0.7,0.5-1.4,1-2,1.6c0.1,0.9-1.3,2.3-4,4.1c-2.3,1.5-4.6,3.9-7.1,7.4
					c1.5-2.9,3.7-5.9,6.4-9c-6.2,2.4-13.4,2.2-19.5,0.2c0.1,0.1,0.2,0.2,0.2,0.4c-0.1,0.1-0.1,0.2-0.3,0.5c-2.3,4.4-4.8,7.5-7.2,9.6
					c-0.3,0.2-0.5,0.4-0.7,0.7c-0.5,2.6-1.7,4.7-3.6,6.2c0,0-0.1-0.1-0.4-0.3c-0.7,2.9-2.5,4.8-5.4,5.5c-0.2,0.1-0.4,0-0.7-0.2
					c-1.6,1-2.9,2.1-4.2,3c-2.3,1.7-3.6,3.2-4,4.5c-2.8-0.1-5.5-0.2-8.1,0l0.3-0.4c1.1-2.6,0-3.9-3-3.7c-0.8,0-1.8,0.1-2.8,0.1
					c-0.8,0-1.8,0.9-2.7,2.5c-0.7,0-1.5,1.2-2.5,3.4c-0.5,1.2-1.2,2.2-2.1,3.2c-0.2-0.5-0.4-1-0.6-1.5c-0.1,0.9-0.2,1.9-0.3,2.8
					c0.2-0.4,0.6-0.5,1.1-0.3c0.2,0.1,0.4-0.1,0.6-0.3c2.4,0.3,4.6,0.8,6.8,1.4l-0.3,0.4c0.3,1.8,2,2.3,5,1.6
					c0.2-0.1,0.5-0.2,0.7-0.5c-0.6,1.7-2.5,3.3-5.3,4.6c-0.3,0.2-0.6,0.3-0.8,0.6c-2.8-0.5-5.7-0.7-8.5-0.6c-0.3,0-0.5,0.1-0.8,0.4
					c-1.7-0.4-3.3-1-4.7-1.7c-9.6,9.4-15.6,24.5-14.7,38.7c1.5,0,3.1,0.1,4.6,0.2l-0.3,0.4c-0.5,1.7-1.8,2.5-3.9,2.5
					c0,0.4,0.1,0.7,0.2,1.1c3.2-0.1,6.5-0.4,9.7-0.7c0.1,0,0.4,0.1,0.7,0.3c-3.3,1.2-6.5,2.4-9.7,3.4c0,0.1,0.1,0.2,0.1,0.4
					c1.6-0.5,2.2,0.1,1.8,2l0.3-0.4c4.8,0.7,9.5,0.4,14.1-1c0.2-0.1,0.5-0.2,0.7-0.5c1.2,2.3,3.2,3,6,2c1.9-0.8,3.8-1.5,5.7-2.4
					c0.1-0.1,0.3-0.4,0.2-0.9c1.8-1.1,2.9-0.9,3.6,0.5l0.8-0.3c0.1-0.1,0.4,0.1,0.6,0.3c1,0,1.8-0.7,2.8-1.6
					c0.3-0.3,0.5-0.5,0.7-0.7c7.1-0.8,13.9-3.2,20.5-7L231.5,310.9z M214.5,273.6c-1.4,0.9-2.9,1.4-4.6,1.5c-1.2,0.5-1.6-0.2-0.6-2
					c0.1-0.3,0.3-0.6,0.5-0.8c2.1-1,3.1-1,2.8-0.2c-0.2,1.4,0.4,1.9,2.3,1.4L214.5,273.6z M219.3,269.7c-0.1-0.2,0-0.5,0.2-0.7
					C219.4,271,219.3,271.3,219.3,269.7z M227.6,260.1l0.7-0.7c1.1-1.3,2.3-2.5,3.4-3.7C231.3,258.5,230,260,227.6,260.1z
					 M238.4,290.1c0.1-0.3,0.3-0.6,0.5-0.8c2.1-0.8,4-1.4,5.6-1.7l-0.6,0.8c-3.1,3.6-6.3,5.6-9.7,6.1
					C236.6,292.7,237.9,291.2,238.4,290.1z M244,278.4l0.2-0.6c0.1-0.3,0.3-0.6,0.5-0.8C247,277.7,246.8,278.2,244,278.4z
					 M282.9,219.8c0.3-0.2,0.5-0.5,0.7-0.7c4.5-1.5,4.7,0.1,0.9,4.7c-1.5,1.7-4,3.1-7.5,4.1C277.8,225.3,279.8,222.6,282.9,219.8z
					 M250.1,244.1c0.3-0.3,0.5-0.5,0.7-0.7c0.5,1.8,0.1,2.3-1.3,1.5L250.1,244.1z M243.8,250.1c-0.1-0.2,0-0.5,0.2-0.7
					C243.9,251.4,243.8,251.7,243.8,250.1z M236.3,255.4c-0.1-0.2,0-0.5,0.2-0.7C236.4,256.7,236.3,257,236.3,255.4z M240.3,251
					c-0.1-0.2,0-0.5,0.2-0.7C240.4,252.3,240.3,252.6,240.3,251z M223.2,272.3l0.7-0.7c0.3-0.3,0.5-0.5,0.7-0.7
					C225.1,272.7,224.7,273.1,223.2,272.3z M232.2,268.4l0.7-0.7c0.3-0.3,0.5-0.5,0.7-0.7C234.1,268.7,233.7,269.1,232.2,268.4z
					 M239.4,262.8c-0.3,0.2-0.6,0.3-1.1,0.3c0.3-0.3,0.4-0.6,0.5-0.8c0.1-0.4,0.2-0.9,0.1-1.4c-0.2,0.2-0.4,0.4-0.7,0.7
					c-0.2,0.2-0.4,0.4-0.7,0.7c-0.2-0.2-0.4-0.4-0.7-0.7c-0.9-0.7-0.9-1.5-0.1-2.8c3.4,0.6,4.8-0.2,4.2-2.5c0-0.3,0.1-0.4,0.5-0.5
					c1.2,0.2,2.5,0.5,3.7,1.2c-0.4,3.3-1.7,5.2-4,5.9l0.4-0.9C242.1,260.6,241.4,260.8,239.4,262.8z M238.8,264.5
					c-0.1-0.2,0-0.5,0.2-0.7C239,265.8,238.8,266.1,238.8,264.5z M231.1,282.4c-2,1-2.4,0.1-1.1-2.6
					C232.3,280.6,232.7,281.5,231.1,282.4z M233.9,278.9c-0.1-0.2,0-0.5,0.2-0.7C234,280.2,233.9,280.5,233.9,278.9z M235.2,276.7
					c-0.1-0.2-0.2-0.4-0.5-0.7c-2.7,1.9-5.5,3.2-8.3,3.9l0-0.7c0-0.5,0-0.9-0.1-1.4c2.5-0.7,4.7-1.7,6.7-3.1
					c0.3-0.4,0.8-0.6,1.4-0.8c2.6-1.3,3.7-0.7,3.1,1.9C236.3,278.7,235.5,279,235.2,276.7z M233.3,282.5c-0.1-0.2,0-0.5,0.2-0.7
					C233.5,283.8,233.3,284.1,233.3,282.5z M238.7,276.5c-0.1-0.2,0-0.5,0.2-0.7C238.8,277.9,238.7,278.2,238.7,276.5z M249,264
					l0.2-0.6c0.1-0.3,0.3-0.6,0.5-0.8c2.2-1.9,2-3.1-0.5-3.9l0.3-0.4c0-3.3,1.2-6.7,3.8-10c0.2-0.4,0.4-0.6,0.6-0.8
					c2.4-0.8,4.6-2.8,6.9-5.9c0.2-0.4,0.4-0.6,0.6-0.8c2.4-0.4,4.6-0.8,6.7-1.4l-0.3,0.4c-0.8,2.1-2.1,4.1-4,5.9l0.3,0.8
					c0.1,0.1,0,0.3-0.3,0.6c-2.6,2.3-3.7,4.4-3.6,6.6c0,0.1-0.1,0.4-0.3,0.7c-2.5,2.3-4.2,4.5-4.8,6.5c-0.1,0.2-0.2,0.5-0.5,0.8
					C252.6,261.9,250.8,262.6,249,264z M205.9,316.7l0.3-0.4C208.7,317.6,208.6,317.8,205.9,316.7z M209.1,316.9l0.2-0.6
					c0.1-0.3,0.3-0.6,0.5-0.8C212.2,316.1,211.9,316.5,209.1,316.9z M238,285.3c-0.2,0.1-0.4,0-0.7-0.2c0.5-1.8,1.6-3.1,3.3-3.9
					c0.3-0.2,0.6-0.3,0.8-0.5c-2.3-0.6-2.2-1.4,0.4-2.8c0.1-0.1,0.3-0.3,0.4-0.7c0.1-0.3,0.3-0.6,0.5-0.8
					C245.2,281.1,243.7,284.1,238,285.3z M212.6,316l0.2-0.6c0.1-0.3,0.3-0.6,0.5-0.8C215.7,315.2,215.4,315.6,212.6,316z
					 M216.5,314.4c-0.1-0.2,0-0.5,0.2-0.7C216.6,315.8,216.5,316.1,216.5,314.4z M218.2,314.3l0.3-0.6c0.3-0.6,0.7-1.2,1.1-1.6
					C221.9,313,221.4,313.6,218.2,314.3z"/>
				<path class="st0" d="M173.3,317.8c-0.1-0.4-0.1-0.7-0.2-1.1c-0.5,0-1.1-0.1-1.7-0.2c-1.9-0.3-3.6-0.7-5.4-1
					c-1-0.2-0.8-0.7,0.4-1.5c2.1-0.3,4.3-0.4,6.4-0.4c-0.8-14.2,5.2-29.3,14.7-38.7c-3.1-1.7-5.3-4.3-6.7-7.8c0-0.1,0.1-0.4,0.3-0.6
					c2.2,1.2,4.5,2.6,6.9,4.3c0,0,0.1-0.1,0.3-0.4c1.4,0.2,2.8,0.3,4.3,0.1c0.1,0,0.4,0.1,0.7,0.3c0-0.8,0.1-1.3,0.3-1.6
					c0.1-0.9,0.2-1.8,0.3-2.8c-0.9-2.1-1.6-4.1-2.1-6.1c-0.2-0.3-0.2-0.5-0.5-0.8c0-0.7-1.1-1.9-3.2-3.9c-1.6-1.5-2.8-3.1-3.6-5
					c1.9-3.6,4.8-7.4,8.7-11c0.3-0.3,0.5-0.5,0.7-0.7c1.2,0.2,2.4-0.1,3.4-0.9c0.3-0.2,0.5-0.5,0.7-0.7c2.2,1.1,4.4,0.9,6.6-0.6
					c0.1-0.1,0.2,0.1,0.4,0.3c-0.7,2.2,0.2,3.3,3,3.4c1.6-1.9,3.3-1.5,5,1.2c1.4-1.1,2.7-1.7,4.2-1.9c0.2-0.1,0.5-0.2,0.7-0.5
					c1.7-0.7,2.8-1.6,3.1-2.6l0.4,0.3c1.8-1.3,2.5-2.5,2.4-3.7c0-0.3,0-0.5,0.2-0.7c1,0.7,2.1,0.3,3.1-1.2l0.4,0.3
					c0.8-1.9,2.1-3.9,4-5.9c0.3-0.3,0.5-0.5,0.7-0.7c0,0,0.1,0.1,0.1,0.1c-3.1-9.7-11-17.5-17.1-26.3c-3.4,3.2-7.2,6.1-11.3,8.6
					c-0.3,0.2-0.6,0.3-0.8,0.6c-4-0.7-8-1.7-12.1-3.2c-1.7-0.7-1.7-1.5-0.3-2.5c3.1-1,4.2-3,3.3-5.8l0.6-0.2
					c0.4-0.1,0.6-0.3,0.8-0.5c-0.6-3.1-2-5.5-4.2-7.2c-0.1-0.1-0.1,0-0.4,0.3c-2.6,0.2-4.4,1.4-5.2,3.7c-0.3,0.9-0.9,0.9-1.7-0.5
					c-4.5-1.7-5.9-4.7-3.8-8.9c0.2-0.4,0.3-0.7,0.5-0.9c0.2-1-0.6-1.5-2.6-1.6l0.3-0.4c2.9-3.2,4.1-6.4,3.9-9.3
					c-0.1-0.1-0.2-0.2-0.4-0.4c-0.4-0.3-0.7-0.7-0.8-1c-5.3-1.2-9.3-5.5-13.1-9.9c0,0.2,0,0.4,0,0.6c-0.1,0.3-0.2,0.5-0.5,0.8
					c-2.1-1.2-4.4-2.3-6.4-3.4c-0.3-0.1-0.6-0.3-0.9-0.5c-0.1-2.5-2-4.9-5.7-7.3c-0.2-0.1-0.4-0.4-0.7-0.6c-3.7-4.6-7.3-8.9-11-13.2
					c-1.8,0.4-3.7,1-5.4,1.8c-0.3,0.2-0.6,0.3-0.8,0.6c-0.6-0.2-1.4-0.4-2-0.8c-0.3-0.1-0.6-0.3-0.9-0.5c-2.6-0.6-5.1-0.6-7.6-0.1
					c-0.3,0.1-0.6,0.2-0.8,0.5c-0.7-1.9-1.8-3.7-3.4-5.1c-1.3-1.1-1.2-2.2,0.2-3.2c-0.4-1.2-1-2-1.7-2.6c-2,1.5-4,2.7-6.5,3.4
					c-0.4-0.4-1.2-0.3-2.1-0.4c0.4,0.4,0,0.9-1,1.5c-3.9,0.5-7.8,2.8-11.7,6.9c-0.2,0.2-0.4,0.4-0.7,0.7c0.7,0.9,0.4,1.5-1,1.8
					l0.4,0.3c-2,1.7-4,3.5-6,5.3c-0.3,0.2-0.5,0.4-0.7,0.7c-2.2-2-4.3-2.1-6.3-0.3c-0.3,0.2-0.5,0.4-0.7,0.7c-2-0.8-3.6-0.8-4.5-0.1
					c-0.3,0.3-0.7,0.3-1.1,0.3c-2.3,0-2.2,1,0.1,2.9c-2,1.2-3.8,1.3-5.4,0.4c-0.2-0.1-0.5,0.1-1,0.6c-0.4,0.4-0.9,1-1.3,1.5
					c-4.9,0.4-8.4-1.7-10.4-6.5c0-0.3-0.2-0.5-0.5-0.8c-0.1-1.1-1.3-1.6-3.6-1.2c-0.4,0-0.9-0.2-1.4-0.6c-0.4-0.4-1-0.9-1.5-1.3
					c-2,2.8-4.2,2.9-7.1,0.3l-0.7,0c-0.4,0-0.9-0.2-1.4-0.6c-1.4,2.1-2.2,3.5-2.7,4.3c-0.1,0.3-0.3,0.5-0.6,0.8
					c-0.1,1.6-0.8,3.3-2,5c-0.1,0.3-0.3,0.5-0.6,0.8c1.5,2.3,1.6,4.6,0.3,7c-0.1,0.3-0.3,0.5-0.6,0.8c-0.6,1.4-2.5,1.5-5.5,0.1
					c-0.3-0.1-0.6-0.3-0.9-0.5c-0.5-3.8,0-7.7,1.5-11.8c0.1-0.2-0.2-0.4-0.8-0.6c-0.1-0.1-0.3,0-0.6,0.3c-1.5,2.2-2.1,1.2-1.9-2.8
					c0,0,0-0.1,0-0.2c-0.6,0.3-1.2,0.6-1.8,0.9c0,0,0.1,0.1,0.1,0.1c0.9,3.8,0.4,6.2-1.4,7.5l0.3-0.4c-2.5-1.9-3.7-0.9-3.7,3.1
					c0,0.1,0.2,0.4,0.4,0.6c-1.8,0.5-2.4,2-1.7,4.4c1,3.9,1.1,7.9-0.1,11.8c-0.1,0.6-0.2,1.1-0.5,1.7c-0.1,0.9,0.2,1.7,1.1,2.6
					c-1.8,2-2.8,4.2-2.9,6.9l-0.4-0.3c-1.7-0.6-2.2-2.5-1.5-5.5c0.4-1.6-0.1-2.1-1.7-1.4c-2.1-1.1-2.6-0.1-1.8,3.1
					c0.2,0.6,0.3,1.3,0.2,2c-0.2,2.1,0.1,4.2,0.5,6.4c0.6,3.2,0.1,4.5-1.7,3.6c0.3-4.5-1.1-5.8-4-3.8c0,0-0.1,0-0.4-0.3
					c-0.9,0.3-1,1.8-0.6,4.4c1,5.1,1.6,10.2,1.6,15.4c1.3,1.6,2.1,3.2,2.6,4.8c0.2,0.3,0.3,0.6,0.5,0.8c-0.4,3.8,0.5,7.6,2.8,11.5
					c1,1.6,2,3.4,3.1,5.5c0.8,1.4,2.5,2.6,5.1,3.6c0.3-0.3,0.5-0.5,0.7-0.7c0.5,0.5,0.9,0.9,1.1,1.5c0.1,0.1,0,0.3-0.3,0.6
					c3.1,4.9,6.2,9.4,9.5,13.3c0,0-0.1,0.1-0.3,0.4c1.8,1.6,3.4,3.2,4.9,5.1c0,0-0.1,0.1-0.3,0.4c1.8,1.5,3.4,2.7,5.1,3.4
					c0.2,0.1,0.5,0.3,0.7,0.5c-0.6,0.9-0.2,2,1.2,3.1l-0.3,0.4c1.5,1.3,2.9,2.8,4,4.3c0.1,0.1,0,0.1-0.3,0.4c0,0.4,0,0.8-0.3,1.1
					l-0.4-0.3c0.7,2.7,2.3,4.4,5,5.3c0.1,0,0.4,0.2,0.6,0.4c14.4,14.3,28.8,24.6,43.2,31.1c1,0.5,2.2,0.7,3.3,1
					c2.1,2.6,5.3,4.6,9.4,6.1c7.3,2.8,14.6,4.9,21.8,6.4c1.1,0.2,2.1,0.5,3.2,0.6c6.8,1.2,13.5,2,20.1,2.6c2.1-1,3.4-2,4.2-3
					c0.2-0.4,0.4-0.6,0.6-0.8C164.7,318,169,318,173.3,317.8z M27.8,156.6l0.2-0.6c0.1-0.3,0.3-0.6,0.5-0.8
					C30.8,155.9,30.6,156.5,27.8,156.6z M51,145.2l0.3-0.4C53,146.7,52.8,146.9,51,145.2z M83,150.8c-0.1,0.1-0.5,0.4-1,0.5
					c-2.7,0.7-3.4,0-2.2-2.2C83.2,148.2,84.3,148.8,83,150.8z M36.9,188c-0.1-0.2,0-0.5,0.2-0.7C37,189.3,36.9,189.6,36.9,188z
					 M37.4,184.4c-0.1-0.2,0-0.5,0.2-0.7C37.5,185.8,37.4,186.1,37.4,184.4z M37.2,181.6c-0.1-0.2,0-0.5,0.2-0.7
					C37.4,183,37.3,183.2,37.2,181.6z M37.4,172.5c0-0.3,0.1-0.6,0.3-0.8C37.6,173.7,37.5,174,37.4,172.5z M37.8,166.1
					c0-0.3,0.1-0.6,0.3-0.8C38.2,170.3,38.1,170.5,37.8,166.1z M18.4,186c-0.1-0.2,0-0.4,0.2-0.6C19,188.2,19,188.4,18.4,186z
					 M26.3,221.2c-1.7-3.5-3.3-7.1-5-10.5c0.6-2.9,0-5.7-1.9-8.3c-0.2-0.3-0.4-0.5-0.7-0.7c-0.1-4.3-0.1-8.5-0.2-12.7
					c-0.1-0.2,0-0.5,0.2-0.7c0.9,1.9,1.2,3.7,1.4,5.6c-0.1,0.2-0.2,0.5-0.4,0.7c2.3,3.4,3.5,6.9,3.8,10.4c-0.1,0.2-0.1,0.4-0.4,0.7
					c1.5,2.3,2.6,4.5,3.4,6.8c0.2,0.3,0.3,0.6,0.5,0.8c-0.6,0.9-0.7,1.9-0.3,3c0.1,0.1,0,0.3-0.3,0.6c2.7,3.9,4.6,7.8,5.8,11.8
					c0.1,0.2,0.2,0.5,0.5,0.7C30.2,227.8,28.1,225.1,26.3,221.2z M34.9,235.9l0.3-0.4C36.9,237.6,36.8,237.6,34.9,235.9z
					 M59.5,269.7c2.5,2.6,2.3,2.8-0.3,0.4L59.5,269.7z M57.3,273.7l0.3-0.4C61.6,277.4,61.5,277.6,57.3,273.7z M67.6,281.7l0.3-0.4
					c3.4,0.3,6.9,2.4,10.7,6.2c0.2,0.3,0.4,0.4,0.8,0.6c2.5,1.4,3.8,2.8,3.9,4.5C78,290,72.8,286.4,67.6,281.7z M84.4,292.9l0.3-0.4
					C86.5,294.5,86.3,294.7,84.4,292.9z M170.9,273.3c-1.5,0.8-2,0.4-1.5-1.2C172.2,272,172.7,272.5,170.9,273.3z M197.3,234
					c0.5-0.5,0.9-1,1.3-1.5c1.3,2.3,0.6,3-2,2.2L197.3,234z M176.5,228.6c2.8-0.8,3.3-0.4,1.6,1.3c-0.5,0.5-1.2,0.6-2,0.3
					C175.1,229.9,175.2,229.4,176.5,228.6z M172.5,232.1c-1.6,0.4-1.6-0.1-0.2-1.8C175.7,230.6,175.8,231.3,172.5,232.1z
					 M166.6,230.5c4.4,1,4.1,2-0.6,2.9l-0.3-0.4C165.1,232.1,165.4,231.3,166.6,230.5z M90.5,297.1c-1.7-0.3-2.5-1.2-2.1-2.6
					c2.4,0.2,3.4,1,3,2.7L90.5,297.1z M125.3,310.2c-0.2-0.1-0.5-0.2-0.8-0.5c-0.6-1.5-2.4-2.6-5.1-3.1c-5.9-1.3-11.9-2.7-17.9-4.2
					c-2.4-2.3-4.8-3.8-7.1-4.4c-1.7-0.6-1.8-1.3-0.3-2.3c3.7,2.3,7.3,4.3,10.9,6c0.3,0.1,0.5,0.3,0.7,0.5c1,0,1.9-0.2,2.7-0.3
					c0.3-0.2,0.5-0.2,0.8-0.5c6.8,2.9,13.5,5.5,20.1,7.7c0.4,0.1,0.6,0.3,0.8,0.5c1.9-1.2,3.8-0.8,5.7,1.1c0.3,0.3,0.5,0.5,0.7,0.7
					C132.9,311.4,129.1,311.1,125.3,310.2z M146.1,314.2c-0.3-0.1-0.6-0.3-0.9-0.5c-0.2,0.2-0.4,0.3-0.6,0.4c-3.6-0.3-6-1.4-7.3-3.5
					c2.4,0.9,4.8,1.4,7.1,1.4c0.2,0.1,0.5,0.2,0.7,0.4c0.2-0.2,0.5-0.5,0.7-0.7C149.8,315,149.8,315.9,146.1,314.2z M151.3,314.4
					l0.3-0.4C153.4,316,153.2,316.2,151.3,314.4z M160.4,316.2c-0.4-0.1-0.6-0.1-0.9-0.4c-0.2,0.2-0.5,0.4-0.6,0.4
					c-3.7,0.1-5.4-0.9-5.2-2.9c1.8,1.3,3.5,1.5,5.1,0.9c0.1-0.1,0.4,0.1,0.6,0.3c0.3-0.3,0.5-0.5,0.7-0.7c0.3-0.3,0.5-0.5,0.7-0.7
					C164,315.7,163.9,316.8,160.4,316.2z"/>
				<path class="st0" d="M239.4,229.3c0.4,0.1,0.6,0.3,0.8,0.5c0.1,0.6,0.7,1.7,1.7,3.3c6.1,1.9,13.3,2.2,19.5-0.2
					c0.9-1,1.8-1.9,2.8-2.9c0.3-0.2,0.5-0.5,0.7-0.7c0.7,0.2,1.1,0.6,1.1,1c0.7-0.5,1.4-1.1,2-1.6c0-0.3,0-0.7,0-1
					c-0.1-0.2,0-0.5,0.2-0.7c2.6-0.8,4.3-2.5,4.9-5.1c0.1-0.3,0.3-0.6,0.5-0.8c2.9-1.1,5.9-3.3,8.9-6.7c3.3-3.5,5.3-5.9,6-7
					c1-1.9,1.3-2,0.7-0.5c0,3.1-1.9,6.4-5.5,9.9c-0.3,0.2-0.5,0.4-0.7,0.7c-0.4,0.5-0.9,1-1.3,1.5c2.1-1.3,4.2-2.5,6.3-3.5
					c2.1-3.2,4.3-4.1,6.7-2.9c0,0,0.2-0.1,0.4-0.3c3-2.3,5.9-5.5,8.8-9.6c0.2-0.4,0.4-0.6,0.6-0.8c-1.9-1-2.2-3.1-1.1-6.4
					c0.3-0.7,0.6-1.4,0.7-2.1c3.3-1.3,4.8-3.8,4.3-7.3c0-0.3,0-0.5,0.2-0.7c1.3-0.8,2.3-2.7,2.9-5.7c0.4-2.5,1.2-4.9,2.1-7.3
					c0-1.6-0.3-2.8-0.9-3.5c-0.2-0.2-0.4-0.4-0.7-0.7c-0.1-2.6-0.1-5.2,0-7.9c0-0.1-0.1-0.4-0.4-0.6c-2.3-1.2-3.6-3.4-3.9-6.9
					c-0.1-1.4-1-1.6-2.9-0.6c-0.3-3.7-1.4-5.2-3.4-4.4l0.4,0.3c-1.5,3-2.9,4.8-4.1,5.4c-0.1,0-0.3,0-0.6-0.3
					c-0.5-0.7-0.9-1.6-1.3-2.8c-0.5-1.7-0.9-3.2-1.2-4.9c0.9-1,1.4-2,1.6-2.8c0.1-0.4,0.1-0.6,0.4-0.9c-0.6-4.7-0.7-9.4-0.1-14.3
					c0.2-2.5,0.4-5,0.6-7.5c0.2-2.4,0.3-4.9,0.2-7.2c-2.3-0.7-3.9-2.6-4.7-5.4c-0.1-0.3-0.2-0.5-0.5-0.8c0.6-2.6,0-5.1-1.6-7.4
					c-1.8-2.7-3-5.4-3.4-8c-3.9-3.8-7-6.5-9.2-7.8c-0.2-0.1-0.5-0.3-0.7-0.6c-3.1-3.3-5.6-5.4-7.8-6.3c2.8,3.8,5.1,6.8,6.9,8.8
					c0.2,0.3,0.5,0.5,0.7,0.7c0.1,1.6-0.6,3.2-2.2,4.6c-0.1,0.1-0.1,0-0.4-0.3c-2.6,0.9-5.1,0.9-7.9,0.1c-0.1-0.1-0.3,0-0.6,0.3
					c-3.1-1.8-6.2-3.4-9.2-4.9c-0.9-0.4-1.7-1-2.4-1.7c-0.8-0.2-0.6,0.7,0.6,2.6c1,1.4,1.9,3,2.5,4.3c3.9,0.4,7.1,2.7,9.9,6.8
					c0,0.1-0.1,0.2-0.3,0.5c-0.6,2.2-2,3.4-3.9,3.7c-0.1,0-0.1,0.2,0.1,0.6c0.4,0.9-0.4,1.3-2.3,0.9c0,0.6,0,0.8-0.3,1.1l-0.4-0.3
					c-0.3,0.3-0.3,0.4-0.4,0.3c-1.9-1-3.6-1.1-5.2,0c-0.3,0.3-0.4,0.4-0.7,0.6c-0.6,0.2-1.5,0.8-2.7,1.7c-0.3,0.3-0.3,0.5-0.4,0.9
					c-0.6,4.6-0.8,9.4-1,14.1c-0.2,0.2-0.4,0.3-0.6,0.3c-2.5-0.4-4.8-0.2-7.2,0.8c-0.2,0.2-0.3,0.5-0.2,0.7c0.1,2.5-1.8,5-5.7,7.4
					c-0.2-0.2-0.4-0.3-0.4-0.3c-2,1.2-3.9,2.1-5.8,2.7c-0.2-0.2-0.4-0.4-0.7-0.7c-0.4-0.3-0.8-0.5-1.2-0.7
					c-3.9,10.2-3.4,21.8-7.6,32c-1.2,2.2-3.5,4-5.9,5.6c0.8,1.1,2.3,2.5,4.7,4c0.3,0.3,0.5,0.5,0.7,0.7c0.3,3.5-0.5,5.9-2.4,7.3
					c-0.2,0.2-0.5,0.4-0.7,0.7c0.5,2,0.9,3.4,1.6,4.2c0.3,0.3,0.5,0.5,0.7,0.7c-0.1,2.6-0.6,5.3-1.3,8c0,0.1,0.1,0.4,0.3,0.6
					c-0.9,1-1.9,1.9-2.8,2.8c6.1,8.8,14,16.6,17.1,26.3C234.4,227.2,236.8,228.6,239.4,229.3z M294.9,161.2l0.1-0.7
					c0.1-1.6,0.8-3.4,1.7-5C298.8,158.7,298.2,160.5,294.9,161.2z M254.8,135.1c-0.2,0.1-0.5,0.2-0.8,0.5c0.1,1.8-1.3,2.8-4,2.7
					c-0.3,0-0.5,0-0.8-0.3c-1.6-3.2-1.2-5.5,1.5-7.2c0.4-0.3,0.7-0.7,0.8-1.5c0.1-0.4,0.2-0.9,0.1-1.4c2.7,0.4,5.2,0.7,7.8,0.6
					c0.2,0.1,0.5,0.2,0.7,0.4C259.2,132,257.4,134.1,254.8,135.1z"/>
				<path class="st0" d="M220.3,164.6c4.3-10.3,3.7-21.9,7.6-32c-1.8-1-3.6-1.9-5.4-2.5c0.3-0.3,0.3-0.5,0.4-0.7
					c-0.4-4.4-0.8-9-1.1-13.4c-0.2-0.2-0.4-0.5-0.4-0.8c-0.5-1.8-1.6-3.6-3.5-5.4c0.3-0.3,0.5-0.5,0.5-0.8c1-4.2,0.9-8.5-0.4-12.7
					c-0.2-0.2-0.4-0.5-0.7-0.7c-2-2.9-4.2-4.9-6.7-6c0.3-0.3,0.5-0.5,0.8-0.6c0.8-0.3,0.8-1.9-0.4-4.4c-0.2-0.2-0.5-0.3-0.7-0.4
					c-3.1-0.5-5.4-1.4-7.2-2.8c-0.7-0.2-1.2-0.2-1.7,0.1c-2.9,2.2-6,2.6-8.9,1.1c-2.6,2.7-5.4,3.3-8.3,1.8c-4.4-2.5-8.7-4.1-13.1-5
					c-0.2-0.2-0.3-0.4-0.2-0.6c0.4-3.3-0.7-5.1-3.6-5.6c-0.2-0.2-0.4-0.5-0.5-0.8c-1-2.8-0.8-5.6,0.8-8.5c0.3-0.3,0.4-0.4,0.3-0.6
					c-1.2-3.3-1.1-5.7,0.1-7.2c-0.4-0.4-1-0.8-1.5-1.1c-0.7-0.3-1.1-0.4-1.5-0.1c-1.5,1.2-3.1,1-4.8-0.5c-1.2-1.8-2.7-2.7-4.4-2.6
					c-0.7-0.9-0.2-1.5,1.5-2c2.7-0.6,4.2-1.7,4.6-3.3c-0.4-1.6-1.9-2-4.3-1.5c-1.6,0.4-3.2,0.4-5-0.2c0.3-0.3,0.5-0.5,0.8-0.6
					c1-0.7,2.2-1.4,3.3-2.4c-0.1-0.1-0.1-0.1-0.2-0.2c-1,0.2-2,0.3-3,0.1c-1.3,0.7-2.7,1.7-4.1,2.9c-0.1,0.1-0.1,0-0.4-0.3
					c-0.5-2-2.2-2.9-5-2.9c-0.3,0-0.5,0.1-0.8,0.4c0.2,0.6,0.4,1.6,0.7,2.9c0.2,0.4,0,0.6-0.7,0.9c-0.8,0.3-1.7,0.5-2.7,0.6
					c-0.3-1.6-0.4-3.3-0.2-4.9l-0.6,0.2c-0.8,0.3-1.5,0.4-2,0.3c-7.7,10.4-22,11.4-33,17.9c-1.3,0.7-2.1,1.6-2.8,2.5
					c0.6,1.2,0.8,2.4,0.7,3.6c-2,1-4.2,1.8-6.3,2c-0.8,0.2-2.5,0.1-5,0l-0.3,0.4c-0.7-2-2.3-2.8-4.7-2.2c-0.5,0-0.8,0.1-1,0.4
					c-0.2,0.2-0.3,0.4-0.3,0.4c-2.8,0.3-5.6,1.1-8.4,2.5c-0.2,0.2-0.4,0.4-0.6,0.8c-2.5,3-3.9,3.1-4.3,0.1c-0.2-0.4-0.4-0.9-0.4-1.3
					c-0.3,0.2-0.6,0.3-0.9,0.5c0.1,1.2-0.4,2.5-1.4,3.8c-0.2,0.2-0.4,0.4-0.7,0.7c0.2,2.1,0.3,4.2,0.3,6.4l0.4,0.3L68.7,81
					c1.9,1,3.8,0.1,5.6-3c0.3-0.3,0.4-0.6,0.6-0.8c1.7-0.4,3.3-0.5,5-0.6c0.1,0,0.4,0.1,0.7,0.3c3.5-3.1,4.9-3.3,4-0.3
					c0,0.3-0.2,0.5-0.5,0.8c2.1,0,3,0.8,2.6,2.4l-0.4-0.3c-2.9,2-5.9,4.3-8.8,6.9c-0.3,0.2-0.5,0.4-0.7,0.7c0.5-1.4,0.7-2.9,1-4.4
					c0.3-1.9-0.6-2.3-2.7-1.2c-3.9,1-4.7,2.9-2.3,5.6c0.7,0.7,0.5,1.7-0.5,2.6c-0.2,0.2-0.3,0.6-0.3,1.1c1.4-0.8,2.7-1.3,3.8-1.2
					l-0.3,0.4c-2.5,2.2-4.1,4-4.8,5.1c-0.1,0.3-0.3,0.5-0.6,0.8c-1.3,2.6-1.8,5.3-1.4,7.8c0,0.3,0.2,0.6,0.4,0.8
					c3.6-0.5,7.2-2.6,11-6.1c0.1-0.1,0.2-0.1,0.3-0.2c1.9-1,2.4-0.8,1.9,0.8c2.6-1.1,2.6-2.5-0.2-4.2l0.4-0.9
					c0.2-0.4,0.3-0.8,0.2-1.3c-2.8-1.3-4.2-2.6-4.1-4c0-0.3,0.1-0.6,0.3-0.8c2.9-3.5,6-5,9.1-4.4c0.2,0.1,0.3-0.1,0.6-0.3
					c-0.5-2.5,0.8-3.7,4.1-4c1,0,1.9,0.3,2.9,0.9c1.8-1.4,3.7-2.3,5.6-2.8c0.2,0.1,0.4,0.1,0.7,0.3c1.6,1.2,1.2,2.3-1,3.4
					c-0.1,0.1-0.4,0.3-0.5,0.6c-2.7,3.4-2.9,5.4-0.8,6c2.4-1.6,2.8-1.2,1.4,1.3c-0.1,0.3-0.3,0.5-0.6,0.8c-0.7,0.7-1.5,2.3-2.7,4.3
					c-0.1,0.3-0.3,0.5-0.6,0.8c-0.1,3-0.3,6.1-0.5,9.2c-0.1,0.2-0.1,0.4-0.4,0.7c2.8,0.1,3.4,1.5,1.8,4c-0.1,0.1-0.2,0.2-0.3,0.3
					c-1.7,3.4-0.8,5.5,2.6,6.1c2.4,2.3,1.7,2.9-1.7,1.6c-0.9-0.3-1.8,0.2-2.4,1.5c-2.3,0.7-3.3,2.4-2.9,5c0,0.3,0.2,0.6,0.4,0.8
					c-1.6,1-2.7,1.8-3.4,2.4c-0.3,0.2-0.5,0.4-0.7,0.7c0.6,1.7,0.7,3.3,0,5.1c-0.1,0.2,0.1,0.4,0.3,0.6c0.7,2.7,2.7,4,5.9,4.2
					c0.2,0.1,0.5,0.2,0.7,0.4c2.7-1.6,3.6-4.3,2.9-7.9c-0.2-0.3-0.2-0.5-0.5-0.8c2.4-2.3,4.2-2,5.7,1.1l0.7-0.7
					c0.5-0.5,0.9-1,1.3-1.5c1.9-1.4,3.3-0.9,4.1,1.3c2.4-1.2,4.6-3,6.9-4.9c0.1-0.7,0.1-1.8-0.2-3.2c-0.2-1,0.5-1.9,2-3
					c2.3,2.1,3,1.3,2.4-2.2c0-0.3,0-0.5,0.2-0.7c2.1-1.3,4.2-2.4,6.4-3.5c2.2-1,4.5-1.2,6.8-0.7c2.7-3.2,5.5-4.2,8.3-3.1
					c0.3,0.1,0.5,0.3,0.7,0.5c0.9,2.9,1.8,3,3.2,0.2l0.4,0.3c1.4-1.1,2.8-1.6,4.2-1.3c0.2,0.1,0.5,0.2,0.7,0.4
					c0.9-0.9,1.8-1.6,2.7-1.8c0.2-0.1,0.5-0.2,0.7-0.5c2.9,0.5,5.8,0.5,8.6-0.1c0.2,0.1,0.4,0.1,0.7,0.3c-0.2,2.6-0.4,5.2-0.6,7.8
					c-0.1,0.2-0.1,0.4-0.4,0.7c2.5,2.9,3.2,5.9,2.4,9c0,0.3-0.2,0.5-0.5,0.8c-2.9,1.1-3.5,3.2-1.6,6.4c0.1,0.2,0.3,0.6,0.5,0.8
					c-0.7,2.3-1.1,4.6-0.7,7c0,0.3,0.2,0.6,0.4,0.8c-2.7,1.1-2.9,1.8-0.7,2.4c0.3,0,0.6,0.3,0.8,0.5c-1.4,1.2-2.1,2.4-2.2,3.6
					c-0.1,0.3-0.2,0.5-0.5,0.8c0.1,1.7,0.2,2.9,0.4,3.6c0.5,2.3,1.7,3.7,3.5,4c1.1,2.1,1.6,4.2,1.5,6.3c3.7,4.4,7.7,8.8,13.1,9.9
					c-0.1-0.4,0-0.9,0.3-1.4c1.4,0.5,2.4,1,3.2,1.7c0,0,0,0,0,0c0,0,0,0,0,0c1.5,1.4,1.6,3.2,0.2,5.6c-0.1,0.2-0.3,0.4-0.5,0.7
					c-0.2,0.2-0.3,0.6-0.3,1.1c1.3,1.7,3.7,2,7.1,0.9c0.4-0.1,0.6-0.3,0.8-0.5c2.9-2.2,3.4-4.2,1.5-6.1l0.3-0.4
					c2.7-2.2,4.5-4.2,5.4-5.9c0.3-0.3,0.4-0.6,0.6-0.8c2.8,0.1,5.8,0.8,8.9,2c0.1,0.1,0.2-0.1,0.4-0.3c0.9,2.3,2.4,3.3,4.5,3
					c0.2,0.1,0.4,0.1,0.7,0.3c0.1,0.2,0.3,0.5,0.5,0.7C216.8,168.6,219.1,166.9,220.3,164.6z M75.6,82.7c-0.1-0.2,0-0.5,0.2-0.7
					C75.7,84.1,75.6,84.4,75.6,82.7z M107.2,79.9c-0.4,0.2-0.8,0.5-1.3,0.8c-2,1.6-2.8,1.6-2.5,0.1c0.4-1.6,1.1-2.5,2-2.4l0.2-0.6
					c0.1-0.3,0.3-0.6,0.5-0.8C108.9,78.3,109.3,79.3,107.2,79.9z M110.7,115c-2.7,3-5.2,4.2-7.6,3.9l0.7-0.7
					c0.3-0.3,0.5-0.5,0.7-0.7c2.3-1.2,4.6-2.2,6.6-2.8L110.7,115z M112.4,114.9c-1.2,1.1-1,0.4,0.8-1.7c0.1-0.3,0.3-0.7,0.4-1.2
					c0.1-0.7,0.4-1.4,0.5-2.1C116.5,110.6,115.9,112.3,112.4,114.9z M118.6,108.3c-0.1-0.2,0-0.5,0.2-0.7
					C118.7,109.6,118.6,109.9,118.6,108.3z"/>
			</g>
		</g>
	</g>
	<g>
		<g>
			<path class="st1" d="M132.4,92.5"/>
			<g>
				<g>
					<polygon class="st2" points="134.3,91.5 130.4,92.7 130.3,91.9 					"/>
				</g>
			</g>
			<g>
				<g>
					<path class="st2" d="M130.3,91.9l0-0.2l0-0.1l0,0l0,0v0l0,0c7.9-0.9,2.2-0.2,4-0.4v0v0v0v0l0,0l0,0.4L130.3,91.9l0-0.4l0,0v0v0
						v0v0c1.8-0.2-4,0.4,4-0.4l0,0v0l0,0l0,0l0,0.1l0,0.2L130.3,91.9z"/>
				</g>
				<path class="st3" d="M130.9,91.5l1.4-0.1l1.4-0.2l-0.3,0l-0.9,0.1l0,0c-0.9,0.1-0.3,0-0.5,0l0,0.1l0.5-0.1l0-0.1
					c-0.2,0,0.5,0-0.5,0.1l0,0l-0.9,0.1L130.9,91.5z"/>
			</g>
			<g>
				<g>
					<polygon class="st2" points="130.4,92.7 130.3,91.9 134.3,91.5 					"/>
				</g>
			</g>
		</g>
	</g>
</g>
<g id="Layer_4">
	<path class="st4" d="M47.8,18.5c0.5,20.2,0.1,26.6,16.2,23.1c12.2-2.7,27.9-10.3,39.2,7.2"/>
	<path class="st4" d="M103.2,48.8c2.3,3.2,8.5-2.5,15.7,2.9"/>
	<path class="st4" d="M140.9,158.8c14,0,31.9-25.2,42.3-4"/>
	<path class="st4" d="M103.2,48.8c3.1,4.3-0.1,13,1.9,18.4"/>
</g>
<g id="thermohaline_circulation">
	<line class="st5" x1="165.7" y1="380.1" x2="165.3" y2="380.6"/>
	<g>
		<g>
			<path class="st1" d="M174.9,170.4c5.9-10.7,18.1-13.6,29.2-11.3c11.2,2.2,19.3,12.9,21.3,23.7c4.9,26-27.6,38.9-45.3,21.8
				C170.8,195.6,169.3,180.6,174.9,170.4z"/>
			<g>
				<g>
					<path class="st2" d="M195.1,160.4c-7.7,0.4-14.8,4.3-18.5,10.9l-3.5-1.9c4.3-7.9,13.1-12.6,21.7-13L195.1,160.4z"/>
				</g>
				<path class="st3" d="M185.6,162.3c0.5-0.7,1-1.5,1.5-2.2c-0.9-0.1-1.8-0.3-2.8-0.3l0.1,0.3l1,0.5c-1.7,0.6-3.1,1.7-4.7,2.7
					l0.3,0.4c1.5-1,2.9-2.1,4.6-2.7l-0.2,1.1L185.6,162.3z"/>
			</g>
			<g>
				<g>
					<path class="st2" d="M215.7,167.9c-5.1-5.8-12.8-8-20.5-7.5l-0.3-4c8.4-0.7,17.9,2.1,23.7,8.7L215.7,167.9z"/>
				</g>
				<path class="st3" d="M208.1,161.8c0.8-0.1,1.7-0.2,2.6-0.2c-0.5-0.8-1-1.6-1.5-2.4l-0.1,0.3l0.3,1.1c-1.6-0.9-3.4-1.2-5.1-1.8
					l-0.1,0.5c1.7,0.6,3.5,0.8,5,1.7l-1,0.5L208.1,161.8z"/>
			</g>
			<g>
				<g>
					<path class="st2" d="M223.9,188.6c0.2-7.5-3-15.2-8.2-20.7l2.9-2.8c5.9,6.3,9.5,14.8,9.3,23.5L223.9,188.6z"/>
				</g>
				<path class="st3" d="M222.9,178.8c0.7,0.5,1.3,1.2,2,1.8c0.2-0.9,0.6-1.8,0.7-2.7l-0.3,0.1l-0.6,0.9c-0.6-1.7-1.2-3.4-2.1-5
					l-0.4,0.2c0.8,1.6,1.4,3.3,2.1,4.9l-1.1-0.3L222.9,178.8z"/>
			</g>
			<g>
				<g>
					<path class="st2" d="M212.7,206.8c6.6-3.6,11.1-10.7,11.1-18.2l4,0.1c-0.1,8.9-5.5,17.4-13.2,21.5L212.7,206.8z"/>
				</g>
				<path class="st3" d="M220.3,200.8c0,0.9-0.1,1.8-0.3,2.7c0.9-0.2,1.8-0.6,2.6-1l-0.3-0.2l-1.1,0c1-1.5,2.1-2.9,2.8-4.6l-0.4-0.2
					c-0.6,1.7-1.7,3.1-2.7,4.5l-0.4-1.1L220.3,200.8z"/>
			</g>
			<g>
				<g>
					<path class="st2" d="M190.8,208.8c7.1,2.5,15.4,1.7,21.9-2l2,3.5c-7.6,4.4-17,5.2-25.2,2.3L190.8,208.8z"/>
				</g>
				<path class="st3" d="M200.4,210.8c-0.7,0.6-1.5,1-2.3,1.4c0.8,0.5,1.6,1.1,2.4,1.5l0-0.3l-0.7-0.8c1.8-0.2,3.6-0.1,5.4-0.6
					l-0.1-0.5c-1.7,0.5-3.5,0.4-5.3,0.6l0.6-1L200.4,210.8z"/>
			</g>
			<g>
				<g>
					<path class="st2" d="M175.4,193.4c2.5,7.2,8.2,13,15.4,15.4l-1.3,3.8c-8.3-2.8-15-9.6-17.9-17.9L175.4,193.4z"/>
				</g>
				<path class="st3" d="M179.8,202.1l-2.6-0.8l0.5,2.7l0.2-0.2l0.2-1.1c1.1,1.4,2.4,2.7,3.8,3.8l0.3-0.4c-1.4-1.1-2.7-2.3-3.8-3.7
					l1.1-0.1L179.8,202.1z"/>
			</g>
			<g>
				<g>
					<path class="st2" d="M176.7,171.4c-3.4,6.6-4,14.9-1.3,22l-3.8,1.4c-3.1-8.1-2.4-17.5,1.6-25.3L176.7,171.4z"/>
				</g>
				<path class="st3" d="M173.3,180.5c-0.4-0.8-0.9-1.6-1.1-2.5c-0.7,0.7-1.2,1.4-1.7,2.1l0.3,0l0.9-0.6c-0.1,1.8-0.5,3.6-0.2,5.4
					l0.5,0c-0.2-1.8,0.1-3.5,0.2-5.3l0.8,0.8L173.3,180.5z"/>
			</g>
		</g>
	</g>
	<g>
		<g>
			<path class="st1" d="M198.4,157.7c16.3-3.2,30.6-9.7,42.1-22c9.3-10,19.3-30.2,35.2-29.7"/>
			<g>
				<g>
					<path class="st2" d="M222,151.9c-8,2.5-16.1,3.6-24,3.8c7.7-1.5,15.3-3.8,22.2-7.3L222,151.9z"/>
				</g>
			</g>
			<g>
				<g>
					<path class="st2" d="M241.7,137.2c-5.6,6-12.3,11-19.7,14.7l-1.8-3.6c7-3.5,13.3-8.2,18.6-13.9L241.7,137.2z"/>
				</g>
				<path class="st3" d="M233.5,143.9l0.9-2.6l-2.7,0.3l0.2,0.3l1,0.3c-1.3,1.2-2.8,2.2-4.2,3.1l0.3,0.4c1.5-1,2.9-2,4.3-3.1
					l0.1,1.1L233.5,143.9z"/>
			</g>
			<g>
				<g>
					<path class="st2" d="M256.8,118.5c-5.3,5.8-9.5,12.6-15.1,18.7l-2.9-2.7c5.2-5.7,9.5-12.6,15-18.7L256.8,118.5z"/>
				</g>
				<polygon class="st3" points="250,126 250.2,123.4 247.7,124.3 248,124.5 249,124.5 245.8,128.7 246.2,129 249.4,124.8 
					249.7,125.9 				"/>
			</g>
			<g>
				<g>
					<path class="st2" d="M275.6,108c-7.3-0.3-13.7,4.8-18.8,10.5l-3-2.7C260.1,110.6,268.3,106.2,275.6,108z"/>
				</g>
			</g>
		</g>
	</g>
	<g>
		<g>
			<path class="st1" d="M92.5,220.4c-24.6,1.2-39.3-6.7-40.1-24.2c-0.5-10.2,16.3-13.3,24.3-13.9c11.8-0.8,24,3,30.7,13.3
				c6.6,10.2,8.1,23,8.7,34.8c1.9,39.7,27.6,53,56.1,59.6"/>
			<g>
				<g>
					<path class="st6" d="M66.8,214.7c7.2,4.8,16.7,6.7,25.9,7.7c-9.2,0.3-18.7,0-27.6-4.1L66.8,214.7z"/>
				</g>
			</g>
			<g>
				<g>
					<path class="st6" d="M54.4,195c-0.4,8.2,4.5,16.4,12.3,19.6l-1.7,3.6c-9.1-3.8-15.2-13.6-14.6-23.7L54.4,195z"/>
				</g>
				<path class="st3" d="M56.1,205.4c-0.8-0.5-1.6-1.1-2.3-1.8c-0.2,1-0.3,2-0.3,3l0.3-0.1l0.4-1c0.9,1.8,1.9,3.6,3.2,5.1l0.4-0.3
					c-1.3-1.5-2.3-3.2-3.2-4.9l1.2,0.3L56.1,205.4z"/>
			</g>
			<g>
				<g>
					<path class="st6" d="M74.8,184.4c-8,1-19.1,3.5-20.4,10.6l-4-0.4c0.7-6,6-9.1,10.2-10.9c4.5-1.8,9.1-2.7,13.7-3.3L74.8,184.4z"
						/>
				</g>
				<path class="st3" d="M63.7,186.2l2-2.1l-3-0.6l0.1,0.3l1,0.6c-1.9,0.6-3.8,1.4-5.5,2.4l0.2,0.4c1.7-1,3.5-1.7,5.4-2.3l-0.4,1.1
					L63.7,186.2z"/>
			</g>
			<g>
				<g>
					<path class="st6" d="M99.3,190c-6.8-5-15.9-6.5-24.5-5.6l-0.4-4c9.3-1,19.3,0.6,27.2,6.3L99.3,190z"/>
				</g>
				<path class="st3" d="M89.6,184.8l2.8-0.6l-2.1-2.2l-0.1,0.3l0.5,1.1c-1.9-0.6-3.9-0.9-5.9-1.2l-0.1,0.5c1.9,0.3,3.9,0.6,5.8,1.2
					l-0.9,0.7L89.6,184.8z"/>
			</g>
			<g>
				<g>
					<path class="st6" d="M111.8,211.8c-2-8.5-5.6-16.9-12.5-21.8l2.3-3.2c8.1,5.8,12,15.2,14.1,24.1L111.8,211.8z"/>
				</g>
				<path class="st3" d="M108.7,200.9l2.3,1.8l0.2-3l-0.3,0.1l-0.5,1c-0.7-1.9-1.9-3.5-2.8-5.3l-0.4,0.3c0.9,1.7,2.1,3.4,2.8,5.2
					l-1.1-0.3L108.7,200.9z"/>
			</g>
			<g>
				<g>
					<path class="st6" d="M114.9,238.6c-1.2-9.3-1-18.1-3.1-26.8l3.9-0.9c2.2,9,2,18.5,3.2,27.1L114.9,238.6z"/>
				</g>
				<path class="st3" d="M114.4,226.8l1.6,2.5l1.3-2.7l-0.3,0l-0.8,0.8c-0.1-2-0.3-4-0.5-5.9l-0.5,0c0.2,2,0.4,4,0.5,5.9l-1-0.7
					L114.4,226.8z"/>
			</g>
			<g>
				<g>
					<path class="st6" d="M124.6,264.6c-5.3-7.8-8.4-16.9-9.7-26l4-0.6c1.2,8.7,4.1,17.2,9.1,24.3L124.6,264.6z"/>
				</g>
				<path class="st3" d="M119.5,253.7c0.8,0.6,1.5,1.3,2.3,1.9c0.1-1,0.2-2,0.4-2.9l-0.3,0.1l-0.5,1c-0.7-1.9-1.6-3.6-2-5.6
					l-0.4,0.1c0.4,2,1.3,3.8,2,5.6l-1.1-0.4L119.5,253.7z"/>
			</g>
			<g>
				<g>
					<path class="st6" d="M145.7,282.7c-8.2-4.4-15.9-10.2-21.1-18.1l3.3-2.3c4.8,7.3,11.9,12.7,19.7,16.9L145.7,282.7z"/>
				</g>
				<path class="st3" d="M136,275.8c1,0.2,1.9,0.4,3,0.4c-0.5-0.8-0.8-1.8-1.2-2.7l-0.2,0.3l0,1.1c-1.5-1.3-3.1-2.4-4.5-3.9
					l-0.3,0.3c1.4,1.5,3,2.6,4.5,3.9l-1.1,0.2L136,275.8z"/>
			</g>
			<g>
				<g>
					<path class="st6" d="M171.8,291.8c-8.9-2.1-17.8-4.8-26-9.1l1.8-3.5C154.8,284.4,163.2,288.4,171.8,291.8z"/>
				</g>
			</g>
		</g>
	</g>
	<g>
		<g>
			<path class="st1" d="M208.5,152.2c14,4.8,23.6,19.3,24.8,33.6c1.4,15.6-8.1,28.7-23.3,32.3c-14.4,3.4-29.3-1.5-39.1-13
				c-10.7-12.6-8.8-30.7-0.1-41.1S195,147.6,208.5,152.2z"/>
			<g>
				<g>
					<path class="st7" d="M226.6,170.8c-4.1-7.6-10.7-13.9-18.8-16.6l1.3-3.8c9.2,3.2,16.5,10.2,21,18.5L226.6,170.8z"/>
				</g>
				<path class="st3" d="M220.4,161.5c1,0.2,1.9,0.6,2.8,0.9c-0.2-1-0.4-2-0.8-2.9l-0.2,0.2l-0.1,1.1c-1.4-1.4-2.9-2.8-4.5-4
					l-0.3,0.4c1.6,1.2,3,2.5,4.4,3.9l-1.2,0.1L220.4,161.5z"/>
			</g>
			<g>
				<g>
					<path class="st7" d="M230.7,195.5c2-8.3,0-17.2-4-24.8l3.5-1.9c4.5,8.3,6.6,18.1,4.4,27.6L230.7,195.5z"/>
				</g>
				<path class="st3" d="M231.7,184.6c0.6,0.8,1.2,1.6,1.6,2.4c0.5-0.9,0.8-1.8,1.2-2.8l-0.3,0l-0.8,0.8c-0.2-2-0.6-4-1.1-5.9
					l-0.5,0.1c0.5,1.9,0.9,3.9,1.1,5.8l-1-0.6L231.7,184.6z"/>
			</g>
			<g>
				<g>
					<path class="st7" d="M215,214.3c7.8-3.4,13.8-10.4,15.6-18.7l3.9,0.9c-2.1,9.5-9,17.6-17.9,21.5L215,214.3z"/>
				</g>
				<path class="st3" d="M224.3,208.5c-0.2,0.9-0.5,1.9-0.8,2.8c1-0.2,2-0.5,2.9-0.8l-0.2-0.2l-1.1-0.1c1.4-1.4,2.7-3,3.8-4.6
					l-0.4-0.3c-1.1,1.7-2.4,3.2-3.7,4.6l-0.1-1.2L224.3,208.5z"/>
			</g>
			<g>
				<g>
					<path class="st7" d="M189.9,215.4c8.2,2.4,17.4,2.2,25.1-1.1l1.6,3.7c-8.9,3.8-18.9,4-28,1.3L189.9,215.4z"/>
				</g>
				<path class="st3" d="M200.8,217.6c-0.8,0.5-1.7,1-2.6,1.3c0.8,0.6,1.7,1.1,2.6,1.5l0-0.3l-0.7-0.8c2-0.1,4,0.1,6-0.3l-0.1-0.5
					c-1.9,0.4-3.9,0.2-5.9,0.3l0.7-0.9L200.8,217.6z"/>
			</g>
			<g>
				<g>
					<path class="st7" d="M169.9,200.1c4.6,7.1,11.8,12.7,20,15.3l-1.2,3.8c-9.1-2.9-17-9-22.2-17L169.9,200.1z"/>
				</g>
				<path class="st3" d="M176.8,208.7c-1-0.1-1.9-0.3-2.8-0.6c0.2,1,0.6,1.9,1,2.8l0.2-0.3l0-1.1c1.6,1.2,3.1,2.6,4.8,3.6l0.3-0.4
					c-1.7-1-3.2-2.4-4.7-3.5l1.2-0.2L176.8,208.7z"/>
			</g>
			<g>
				<g>
					<path class="st7" d="M167,175.5c-2.4,8.1-1.5,17.4,2.9,24.6l-3.4,2.1c-5.1-8.2-6.1-18.6-3.4-27.8L167,175.5z"/>
				</g>
				<path class="st3" d="M165.1,186.4l-1.5-2.5l-1.4,2.7l0.3,0l0.8-0.8c0.1,2,0.3,4,0.7,5.9l0.5-0.1c-0.4-1.9-0.7-3.9-0.7-5.9
					l0.9,0.7L165.1,186.4z"/>
			</g>
			<g>
				<g>
					<path class="st7" d="M183.2,156.7c-7.6,4-13.9,10.6-16.2,18.8l-3.8-1.1c2.6-9.4,9.8-17,18.2-21.2L183.2,156.7z"/>
				</g>
				<path class="st3" d="M173.9,162.8c0.3-0.9,0.5-1.9,0.9-2.8c-1,0.2-1.9,0.5-2.9,0.8l0.2,0.2l1.1,0.1c-1.5,1.4-2.8,2.9-3.9,4.5
					l0.4,0.3c1.2-1.6,2.4-3.1,3.9-4.4l0.1,1.2L173.9,162.8z"/>
			</g>
			<g>
				<g>
					<path class="st7" d="M207.9,154.1c-8-2.7-17.1-1.4-24.7,2.6l-1.9-3.5c8.4-4.4,18.6-5.9,27.8-2.8L207.9,154.1z"/>
				</g>
				<path class="st3" d="M197.1,152.2c0.8-0.6,1.6-1,2.5-1.5c-0.9-0.5-1.8-1-2.7-1.4l0,0.3l0.8,0.8c-2,0.1-4,0.3-5.9,0.8l0.1,0.5
					c1.9-0.4,3.9-0.6,5.9-0.7l-0.7,1L197.1,152.2z"/>
			</g>
		</g>
	</g>
	<g>
		<g>
			<path class="st1" d="M181.7,156c7.6-3.2,17.8-9.9,23-16.6c5.2-6.8,6.7-15.7,4.8-23.9c-3.9-17.2-20.2-25.7-36.9-23.8
				c-14.6,1.6-28.1,8.8-40.8,15.9c-4.2,2.3-28.7,19.2-27.6,5.6c0.6-7.4,4.5-14.8,7.6-21.4c3.4-7.3,7.2-14.5,11-21.6
				c0.8-1.5,1.6-3,2.4-4.5"/>
			<g>
				<g>
					<path class="st7" d="M204.3,142.9c-7.2,5.5-15.3,9.1-23.4,11.3c7.5-3.3,14.8-8.1,20.4-14L204.3,142.9z"/>
				</g>
			</g>
			<g>
				<g>
					<path class="st7" d="M211.8,117.4c1.5,9-1,18.9-7.5,25.6l-2.9-2.7c5.6-5.8,7.8-14.3,6.5-22.2L211.8,117.4z"/>
				</g>
				<path class="st3" d="M210.9,129c-0.2-0.9-0.7-1.9-1-2.7c-0.6,0.8-1.1,1.5-1.8,2.1l0.3,0.1l1-0.5c-0.4,1.8-0.9,3.6-1.6,5.4
					l0.4,0.2c0.7-1.8,1.2-3.6,1.6-5.5l0.7,0.9L210.9,129z"/>
			</g>
			<g>
				<g>
					<path class="st7" d="M197.3,95c7.8,4.8,13.2,13.3,14.5,22.3l-4,0.6c-1.2-8-5.8-15.3-12.7-19.6L197.3,95z"/>
				</g>
				<path class="st3" d="M205.4,103.3l-2.7-1.1l0.4,2.8l0.3-0.2l0.3-1.1c1.1,1.5,2.2,3.1,3,4.7l0.4-0.2c-0.8-1.7-1.9-3.3-3-4.8
					l1.2,0L205.4,103.3z"/>
			</g>
			<g>
				<g>
					<path class="st7" d="M171.1,89.9c8.8-1.2,18.4,0.2,26.1,5.2l-2.1,3.4c-6.8-4.3-15.4-5.7-23.5-4.6L171.1,89.9z"/>
				</g>
				<path class="st3" d="M182.6,90.4c-0.9,0.3-1.8,0.8-2.7,1.2c0.8,0.6,1.5,1,2.3,1.7l0-0.3l-0.6-1c1.9,0.3,3.7,0.6,5.5,1.1l0.1-0.4
					c-1.8-0.5-3.7-0.9-5.6-1.1l0.8-0.8L182.6,90.4z"/>
			</g>
			<g>
				<g>
					<path class="st7" d="M146.1,97.8c7.9-3.7,16.3-6.7,25.1-7.9l0.5,4c-8.2,1.1-16.2,4-23.9,7.6L146.1,97.8z"/>
				</g>
				<path class="st3" d="M156.6,94c-0.6,0.7-1.2,1.5-1.8,2.2c0.9,0.2,1.9,0.3,2.8,0.5l-0.1-0.3l-0.9-0.6l5.4-1.7l-0.1-0.4l-5.4,1.8
					l0.4-1.1L156.6,94z"/>
			</g>
			<g>
				<g>
					<path class="st7" d="M123.3,110.3c7.2-4.4,14.9-8.8,22.7-12.5l1.7,3.6c-7.7,3.7-15,7.8-22.4,12.3L123.3,110.3z"/>
				</g>
				<polygon class="st3" points="133.2,105.1 131.7,107.6 134.5,107.6 134.4,107.4 133.3,106.9 138.3,104.2 138.1,103.8 
					133.1,106.5 133.3,105.4 				"/>
			</g>
			<g>
				<g>
					<path class="st7" d="M106.2,112.7c-0.7,4.2,1.5,4.1,5.9,2.9c3.8-1.2,7.6-3.3,11.2-5.3l2,3.5c-3.8,2.2-7.6,4.3-12,5.7
						c-2.2,0.6-4.6,1.4-7.7,0.4c-3.6-1.4-3.6-5.5-3.4-7.6L106.2,112.7z"/>
				</g>
				<path class="st3" d="M110.6,116.7c-0.6,0.6-1.3,1.3-2.1,1.7c0.8,0.6,1.8,0.8,2.8,1.1l-0.1-0.3l-0.9-0.7c1.9-0.3,3.7-1,5.4-1.7
					l-0.2-0.4c-1.7,0.7-3.5,1.4-5.3,1.7l0.5-1L110.6,116.7z"/>
			</g>
			<g>
				<g>
					<path class="st7" d="M115.1,89.4c-3.6,7.7-7.9,15.4-8.9,23.4l-4-0.4c1.2-9.3,5.7-16.9,9.3-24.7L115.1,89.4z"/>
				</g>
				<path class="st3" d="M109.9,99.1l-0.3-2.8l-2.3,1.7l0.3,0.1l1.1-0.3c-0.8,1.7-1.5,3.5-2.2,5.2l0.4,0.2c0.7-1.8,1.4-3.5,2.2-5.2
					l0.5,1L109.9,99.1z"/>
			</g>
			<g>
				<g>
					<path class="st7" d="M126.9,66.6c-4.1,7.6-8.1,15.1-11.8,22.8l-3.6-1.7C116.4,80.4,121.7,73.5,126.9,66.6z"/>
				</g>
			</g>
		</g>
	</g>
	<g>
		<g>
			<path class="st1" d="M274,106.1c20.7-1,16.8,30.2,14.7,38.3c-3.8,15.4-21.1,17.3-28.2,16.2c-19-2.8-32.5-8.4-41.9-24.2
				c-4.6-7.7-7.2-16.2-9.7-24.6"/>
			<g>
				<g>
					<path class="st7" d="M288.1,123.8c0.2-4.3-0.2-8.7-2.4-12.7c-2-4.1-6.9-6.7-11.9-7c4.8-0.4,10.5,1.5,13.4,5.8
						c3.1,4.1,4.2,8.9,4.7,13.4L288.1,123.8z"/>
				</g>
			</g>
			<g>
				<g>
					<path class="st7" d="M284.9,148.7c3.5-7,3.9-16.7,3.2-24.9l4-0.5c0.6,9.3,0.6,18.3-3.7,27.4L284.9,148.7z"/>
				</g>
				<path class="st3" d="M288.3,138.5l1,2.7l1.8-2.3l-0.3,0l-1,0.6c0.3-1.9,0.5-3.9,0.6-5.8l-0.5,0c-0.1,1.9-0.3,3.9-0.6,5.8
					l-0.8-0.8L288.3,138.5z"/>
			</g>
			<g>
				<g>
					<path class="st7" d="M263.8,158.9c8.3,0.1,17.1-3.1,21.1-10.2l3.5,2c-5.1,8.8-15.4,12.3-24.6,12.2L263.8,158.9z"/>
				</g>
				<path class="st3" d="M274.5,157.7c-0.6,0.7-1.2,1.4-2,2.1c1,0.3,1.9,0.4,2.9,0.6l-0.1-0.3l-1-0.6c1.9-0.6,3.7-1.5,5.4-2.5
					l-0.2-0.4c-1.7,1-3.4,1.8-5.3,2.4l0.4-1.1L274.5,157.7z"/>
			</g>
			<g>
				<g>
					<path class="st7" d="M238.8,152.6c7.6,3.6,16.6,5.6,24.9,6.3l0,4c-9.4-0.8-18.1-2.7-26.6-6.6L238.8,152.6z"/>
				</g>
				<path class="st3" d="M249.1,156.9c-0.9,0.2-1.9,0.5-2.8,0.7l2.1,2.1l0.1-0.3l-0.5-1c1.9,0.5,3.8,1,5.7,1.4l0.1-0.5
					c-1.9-0.4-3.8-0.8-5.7-1.4l0.9-0.7L249.1,156.9z"/>
			</g>
			<g>
				<g>
					<path class="st7" d="M220.4,135.6c4.3,7.4,10.7,13.4,18.5,17l-1.7,3.6c-8.4-3.9-15.6-10.6-20.2-18.6L220.4,135.6z"/>
				</g>
				<path class="st3" d="M226.6,144.7c-0.9-0.3-1.9-0.5-2.8-0.9c0.2,1,0.5,1.9,0.7,2.9l0.2-0.2l0.1-1.1c1.3,1.4,2.8,2.8,4.3,4
					l0.3-0.4c-1.5-1.2-3-2.5-4.3-3.9l1.2-0.1L226.6,144.7z"/>
			</g>
			<g>
				<g>
					<path class="st7" d="M210.8,111.3c2.5,8.5,5.1,16.9,9.6,24.3l-3.4,2.1C213.3,129,212,120.2,210.8,111.3z"/>
				</g>
			</g>
		</g>
	</g>
	<g>
		<g>
			<path class="st1" d="M122.8,257.7c9.5,18.8,31.3,28.5,47.2,31.8c15,3.1,31.9-4.1,44.8-13c11.6-7.9,18.7-20.8,26.3-32.2
				c9.5-14.4,15-14.1,26.7-27.1c6.7-7.4,13.7-16.6,10.5-32.4c-1.6-7.9-2.4-27.1-30.8-22.6c-11.1,1.8-13,20.5-15.2,36.1"/>
			<g>
				<g>
					<path class="st7" d="M138.6,278.3c-6.5-6.1-11.5-13.6-14-21.5c3.8,7.3,9.5,13.5,16.4,18.2L138.6,278.3z"/>
				</g>
			</g>
			<g>
				<g>
					<path class="st7" d="M162.3,289.6c-8.4-2.5-16.5-6.2-23.7-11.3l2.3-3.3c6.8,4.8,14.5,8.3,22.5,10.7L162.3,289.6z"/>
				</g>
				<path class="st3" d="M151.9,285.2c1-0.1,1.9-0.2,2.8-0.3l-1.7-2.3l-0.1,0.3l0.3,1.1c-1.7-0.7-3.4-1.5-5.1-2.4l-0.2,0.4
					c1.7,0.9,3.4,1.7,5.1,2.4l-1,0.5L151.9,285.2z"/>
			</g>
			<g>
				<g>
					<path class="st7" d="M188.6,290.8c-8.5,2.3-18.2,1.5-26.4-1.2l1.1-3.8c8.1,2.7,16.2,3.3,24.3,1.2L188.6,290.8z"/>
				</g>
				<path class="st3" d="M177.3,291.6c0.9-0.5,1.7-0.9,2.5-1.5c-0.8-0.4-1.7-0.9-2.5-1.4l0,0.3l0.7,0.9c-1.9,0-3.7-0.1-5.6-0.3
					l-0.1,0.5c1.9,0.2,3.8,0.4,5.7,0.3l-0.7,0.9L177.3,291.6z"/>
			</g>
			<g>
				<g>
					<path class="st7" d="M212.7,280.3c-7.4,4.6-15.4,8.5-24.1,10.5l-0.9-3.9c8.1-1.9,15.7-5.5,22.8-10L212.7,280.3z"/>
				</g>
				<path class="st3" d="M202.6,285.3l1.6-2.4l-2.8-0.2l0.1,0.3l1,0.5c-1.7,0.8-3.4,1.6-5.1,2.3l0.2,0.4c1.8-0.7,3.5-1.5,5.2-2.3
					l-0.2,1.1L202.6,285.3z"/>
			</g>
			<g>
				<g>
					<path class="st7" d="M231.7,262.1c-5,7.1-11.5,13.6-19,18.2l-2.1-3.4c7.1-4.4,13-10.3,17.9-17.2L231.7,262.1z"/>
				</g>
				<path class="st3" d="M224.1,270.4l0.6-2.8l-2.7,0.8l0.2,0.2l1.1,0.1c-1.2,1.4-2.7,2.6-4,3.9l0.3,0.4c1.3-1.3,2.8-2.5,4.1-4
					l0.2,1.2L224.1,270.4z"/>
			</g>
			<g>
				<g>
					<path class="st7" d="M246.1,240.9c-5,6.6-9.2,14.2-14.4,21.2l-3.2-2.4c5-6.8,9.2-14.2,14.5-21.3L246.1,240.9z"/>
				</g>
				<polygon class="st3" points="239.5,249.6 239.6,246.7 237.1,248 237.3,248.2 238.4,248.1 235.4,252.8 235.8,253.1 238.8,248.3 
					239.2,249.4 				"/>
			</g>
			<g>
				<g>
					<path class="st7" d="M264.5,223.6c-6.4,6.2-13.6,10.6-18.5,17.4l-3.2-2.4c5.3-7.3,13-12.1,18.9-17.8L264.5,223.6z"/>
				</g>
				<path class="st3" d="M255.7,230.4l1-2.7l-2.8,0.5l0.2,0.3l1.1,0.2c-1.5,1.2-2.9,2.4-4.3,3.7l0.3,0.3c1.4-1.3,2.8-2.5,4.3-3.7
					l0,1.2L255.7,230.4z"/>
			</g>
			<g>
				<g>
					<path class="st7" d="M279.7,201.9c-2.7,9-9.1,15.5-15.2,21.6l-2.8-2.9c5.9-5.9,11.9-12.2,14.1-19.9L279.7,201.9z"/>
				</g>
				<path class="st3" d="M274.1,212c0.1-1,0.2-1.9,0.2-2.9c-0.8,0.5-1.7,0.8-2.5,1.2l0.3,0.2l1.1-0.1c-1.1,1.5-2.2,3-3.4,4.4
					l0.4,0.3c1.2-1.4,2.4-2.9,3.5-4.5l0.3,1.1L274.1,212z"/>
			</g>
			<g>
				<g>
					<path class="st7" d="M278.3,175.4c2,8.5,4.3,17.4,1.5,26.5l-3.8-1.2c2.5-7.6,0.5-16.2-1.4-24.1L278.3,175.4z"/>
				</g>
				<path class="st3" d="M280,186.6l-1.8-2.2l-1,2.7l0.3-0.1l0.7-0.8c0.3,1.8,0.5,3.7,0.6,5.6l0.5,0c0-1.9-0.2-3.8-0.6-5.6l1,0.6
					L280,186.6z"/>
			</g>
			<g>
				<g>
					<path class="st7" d="M257.4,159.7c4.5,0.2,9.3,1.3,13.2,4.2c3.9,2.9,6.5,7.2,7.7,11.6l-3.8,1.2c-2-8-9-12.9-17.2-12.9
						L257.4,159.7z"/>
				</g>
				<path class="st3" d="M268.6,163.3c-1-0.1-2,0-2.9,0.2c0.6,0.7,1.1,1.5,1.5,2.3l0.2-0.3l-0.2-1.1c1.6,0.9,3.1,2,4.4,3.3l0.3-0.3
					c-1.3-1.4-2.9-2.5-4.5-3.4l1.1-0.4L268.6,163.3z"/>
			</g>
			<g>
				<g>
					<path class="st7" d="M235.3,172.6c1.6-4.1,3.8-8.8,8.5-11.1c5-2,9-1.6,13.6-1.8l-0.2,4c-3.8,0-8.8,0.1-11.7,1.4
						c-3.1,1.5-5.1,5.2-6.5,8.9L235.3,172.6z"/>
				</g>
				<path class="st3" d="M242.3,163.1c-0.5,0.9-0.8,1.9-1,2.8c0.9-0.3,1.8-0.5,2.7-0.5l-0.2-0.3l-1.1-0.3c1.4-1.3,3.2-1.9,4.9-2.3
					l-0.1-0.5c-1.9,0.4-3.8,1-5.2,2.4l0-1.2L242.3,163.1z"/>
			</g>
			<g>
				<g>
					<path class="st7" d="M230.3,198.2c1.2-8.5,2.1-17.1,5-25.6l3.8,1.4C235.1,181.3,232.8,190,230.3,198.2z"/>
				</g>
			</g>
		</g>
	</g>
	<g>
		<g>
			<path class="st1" d="M111.7,91.7c2.7-5.3,6.2-12.2,9.5-17.2c3.6-5.6,15-10.5,15.4-17.4c0.1-2.7-3.9-10.3-9.4-10
				c-8.6,0.4-9.8,8.6-9.9,11.9c-0.4,8.8,2.4,8.3,4,15.4"/>
			<g>
				<g>
					<path class="st6" d="M124.7,73.5c-5.4,4.4-10.1,11.4-14.8,17.3c3.7-6.8,6.5-13.6,12-20.2L124.7,73.5z"/>
				</g>
			</g>
			<g>
				<g>
					<path class="st6" d="M137.9,54.1c2.1,5.2-1.9,9.6-4.5,12c-2.9,2.7-6.2,4.9-8.7,7.4l-2.8-2.8c5.3-5.2,14.2-9.8,12.3-15.2
						L137.9,54.1z"/>
				</g>
				<path class="st3" d="M134.2,64.5c0.2-0.9,0.3-1.8,0.4-2.6c-0.8,0.3-1.6,0.5-2.5,0.7l0.2,0.2l1,0.2c-1.1,1.2-2.4,2.3-3.7,3.4
					l0.3,0.4c1.3-1.1,2.6-2.2,3.7-3.4l0.2,1.1L134.2,64.5z"/>
			</g>
			<g>
				<g>
					<path class="st6" d="M117,51.7c1.8-4.3,6.7-6.8,11.3-6.4c5.2,0.8,7.9,4.9,9.6,8.7l-3.8,1.4c-1.1-2.9-3.7-6-6.3-6.2
						c-2.9-0.1-6.1,1.2-7.3,4.2L117,51.7z"/>
				</g>
				<path class="st3" d="M126.3,45.9c-0.8,0.6-1.4,1.2-2,1.8c0.9,0.3,1.6,0.7,2.3,1l0-0.3l-0.7-0.8c1.6-0.5,3.3,0,4.7,0.7l0.2-0.4
					c-1.5-0.8-3.3-1.2-5-0.8l0.5-1L126.3,45.9z"/>
			</g>
			<g>
				<g>
					<path class="st6" d="M119.2,75c-0.5-3.4-3.1-6.2-3.8-10.9c-0.4-4.2-0.3-8.3,1.6-12.4l3.6,1.8c-2,2.6-3,6.5-3.2,10.3
						C117.3,67.8,119.4,71.5,119.2,75z"/>
				</g>
			</g>
		</g>
	</g>
	<g>
		<g>
			<path class="st1" d="M110.6,94.2c2.8-4.4,4.3-15.5,3.4-20.9c-0.7-4.2-3.6-6.9-8.6-6.2c-4.5,0.6-1.2,8,1.3,10.2
				c3.5,3,6.4,3,10.5,5c4.1,2,15.1,8.6,18.9,11.1"/>
			<g>
				<g>
					<path class="st6" d="M113.2,67.5c3.4,5,1.5,9.8,0.8,14c-1.1,4.2-2.7,8.7-5.1,11.6c3-6.4,5.1-17.7,1.5-22.8L113.2,67.5z"/>
				</g>
			</g>
			<g>
				<g>
					<path class="st6" d="M112.3,82.5c-4.3-1.1-9.4-4.7-10.7-9.7c-0.4-1.2-0.7-2.6-0.3-4.4c0.4-2,2.7-3.3,4.1-3.3
						c2.5-0.4,5.7,0.2,7.7,2.4l-2.8,2.8c-1-1.1-2.6-1.5-4.5-1.2c-1.1,0-0.8,0.4-0.5,2.5c1.1,3.8,4,5.8,8.1,7.1L112.3,82.5z"/>
				</g>
				<path class="st3" d="M103,74.6c0.8,0.6,1.7,1.1,2.6,1.5c-0.1-1-0.1-1.9,0-2.8l-0.3,0.1l-0.5,1c-0.9-1.6-1.6-3.6-1.3-5.4
					l-0.5-0.1c-0.3,2,0.4,4,1.4,5.7l-1.2-0.3L103,74.6z"/>
			</g>
			<g>
				<g>
					<path class="st6" d="M135,95c-7.3-4.4-14.9-9.7-22.6-12.5l1.3-3.8C121.9,83.2,128.1,89.4,135,95z"/>
				</g>
			</g>
		</g>
	</g>
	<g>
		<g>
			<path class="st1" d="M124,47.8c-13.8,9.3-1.7,30.7,3.4,38.2c6.2,9.1,15.8,9.7,25.7,11.1c10.1,1.5,18.3,5.8,24.9,13.7
				c2.8,3.3,5,7.1,5.3,11.5c0.3,4.3-1.2,8.5-1.5,12.7c-0.9,12.1,21.2,22,32.2,28.6"/>
			<g>
				<g>
					<path class="st2" d="M117.4,70.5c-1.7-8.2,0.4-18.5,7.7-21.1c-6.4,4-6.4,12.6-3.9,19.8L117.4,70.5z"/>
				</g>
			</g>
			<g>
				<g>
					<path class="st2" d="M130.5,92.2c-6.9-6.2-10-13.7-13.1-21.7l3.8-1.2c2.6,7.1,6.4,15.1,11.8,19.8L130.5,92.2z"/>
				</g>
				<path class="st3" d="M123.9,83.2l2.5,1.3l0-2.7l-0.3,0.2l-0.4,1c-0.9-1.5-1.8-3.1-2.6-4.7l-0.4,0.2c0.8,1.6,1.7,3.2,2.6,4.7
					l-1.1-0.1L123.9,83.2z"/>
			</g>
			<g>
				<g>
					<path class="st2" d="M154.5,99.4c-7.6-1.4-16.8-1.5-24-7.3l2.5-3.1c5.8,4.7,14.1,5,22.2,6.5L154.5,99.4z"/>
				</g>
				<path class="st3" d="M144.2,97.2l2.6-1l-2-1.8l-0.1,0.3l0.5,1c-1.8-0.3-3.5-0.7-5.2-1.2l-0.1,0.4c1.7,0.5,3.5,0.9,5.3,1.2
					l-0.8,0.8L144.2,97.2z"/>
			</g>
			<g>
				<g>
					<path class="st2" d="M174.6,110.2c-5.3-5.6-12.4-9.4-20.1-10.7l0.7-3.9c8.4,1.4,16.4,5.7,22.3,11.9L174.6,110.2z"/>
				</g>
				<path class="st3" d="M167.1,103.5l2.7,0l-1.3-2.5l-0.2,0.3l0.1,1.1c-1.5-1-3.2-1.7-4.8-2.5l-0.2,0.4c1.6,0.8,3.2,1.5,4.7,2.5
					l-1,0.4L167.1,103.5z"/>
			</g>
			<g>
				<g>
					<path class="st2" d="M180.3,130.7c2.3-8.1,0.3-14.9-5.7-20.6l2.9-2.8c2.9,3,5.7,6.6,7,11c1.4,4.5,0.4,9.1-0.2,13L180.3,130.7z"
						/>
				</g>
				<path class="st3" d="M181.5,120.9c0.5,0.6,1.3,1.3,1.7,2.1c0.6-0.8,0.8-1.6,1.1-2.6l-0.3,0.1l-0.7,0.8c-0.2-1.8-0.9-3.5-1.5-5.2
					l-0.4,0.2c0.7,1.6,1.3,3.3,1.5,5.1l-1-0.5L181.5,120.9z"/>
			</g>
			<g>
				<g>
					<path class="st2" d="M191.8,152.7c-3.4-2.5-6.7-5.2-9.3-8.9c-2.9-3.5-3.2-9.3-2.2-13.1l3.9,0.7c-2.6,7.8,3.5,13.4,9.9,18.1
						L191.8,152.7z"/>
				</g>
				<path class="st3" d="M184.1,145c0.9,0.3,1.8,0.6,2.7,0.9c-0.2-0.9-0.3-1.8-0.4-2.7l-0.3,0.2l-0.2,1c-1.2-1.3-2.2-2.8-2.9-4.4
					l-0.4,0.2c0.7,1.7,1.7,3.2,2.9,4.5l-1.2,0.1L184.1,145z"/>
			</g>
			<g>
				<g>
					<path class="st2" d="M212.9,165.4c-6.9-4.1-14.3-7.7-21.1-12.6l2.3-3.2C199.7,155.2,206.6,160.2,212.9,165.4z"/>
				</g>
			</g>
		</g>
	</g>
	<g>
		<g>
			<path class="st1" d="M209.8,209.9c-7.8,1.1-15.3,3.3-23.1,4.4c-10.2,1.5-20.8,0.5-31.1,1.1c-10.6,0.6-24.9,1.4-35.4,2.3
				c-9.4,0.8-15,1.4-24.4,2.5c-18.9,2.2-40.6-3.1-43.5-24.1"/>
			<g>
				<g>
					<path class="st2" d="M185.6,212.4c8,0.3,16.4-0.7,24.4-0.5c-7.8,1.1-15.7,3.4-23.9,4.5L185.6,212.4z"/>
				</g>
			</g>
			<g>
				<g>
					<path class="st2" d="M161.6,213.2c8.2-0.2,16.2,0.1,24.1-0.9l0.5,4c-8.3,1.1-16.5,0.7-24.5,0.9L161.6,213.2z"/>
				</g>
				<polygon class="st3" points="172,213.7 169.7,215.2 172.1,216.6 172.1,216.2 171.4,215.4 176.7,215.3 176.7,214.8 171.4,214.9 
					172,214 				"/>
			</g>
			<g>
				<g>
					<path class="st2" d="M137.2,214.5c8.1-0.4,16.1-1.1,24.4-1.2l0.1,4c-7.9,0.1-16.1,0.8-24.2,1.2L137.2,214.5z"/>
				</g>
				<polygon class="st3" points="147.7,214.4 145.4,216 147.9,217.3 147.8,217 147.1,216.1 152.5,215.8 152.4,215.4 147.1,215.7 
					147.7,214.7 				"/>
			</g>
			<g>
				<g>
					<path class="st2" d="M112.9,216.3c8.1-0.8,16.2-1.3,24.3-1.8l0.2,4c-8.1,0.5-16.1,1-24.2,1.8L112.9,216.3z"/>
				</g>
				<polygon class="st3" points="123.4,216 121.2,217.6 123.6,218.8 123.6,218.5 122.9,217.7 128.2,217.3 128.2,216.9 122.8,217.2 
					123.4,216.3 				"/>
			</g>
			<g>
				<g>
					<path class="st2" d="M88.9,218.6c7.7-0.3,16-1.7,24-2.3l0.4,4c-8.1,0.6-15.9,2.1-24.3,2.4L88.9,218.6z"/>
				</g>
				<polygon class="st3" points="99.2,218.4 97,220.1 99.5,221.2 99.5,220.9 98.7,220.1 104,219.5 103.9,219 98.6,219.6 99.2,218.6 
									"/>
			</g>
			<g>
				<g>
					<path class="st2" d="M66.5,213.8c6.6,3.7,14.7,4.9,22.5,4.9l0.1,4c-8.3,0-16.9-1.2-24.5-5.4L66.5,213.8z"/>
				</g>
				<path class="st3" d="M75.5,217.8c-0.9,0.3-1.7,0.5-2.6,0.8c0.6,0.7,1.2,1.4,1.9,2l0.1-0.3l-0.4-1c1.7,0.4,3.5,0.8,5.3,1l0.1-0.5
					c-1.8-0.2-3.5-0.6-5.2-1l0.9-0.7L75.5,217.8z"/>
			</g>
			<g>
				<g>
					<path class="st2" d="M54.4,195.8c1,7.6,5.4,14.3,12.1,17.9l-2,3.5C57.4,211.9,53.9,203.5,54.4,195.8z"/>
				</g>
			</g>
		</g>
	</g>
	<g>
		<g>
			<path class="st1" d="M166.5,171.1c8.8-9.7,14.4-17.5,24.6-18c8.2-0.4,7.5,7.1,5.1,11.7c-2.4,4.7-7,6.2-10.6,2.9
				c-2.8-2.6-0.5-7.9,8.2-8.9"/>
			<g>
				<g>
					<path class="st6" d="M185.9,156.3c-7.7,1.6-14.3,8.4-20.9,13.4c5.7-6,10.7-13.5,19.4-17.2L185.9,156.3z"/>
				</g>
			</g>
			<g>
				<g>
					<path class="st6" d="M193.2,165.7c2.2-2.4,3.4-7.1,2.1-9.3c-1.2-1.9-6-1.5-9.4-0.2l-1.4-3.7c4.1-1.2,9.6-3.3,14.2,1.7
						c2.6,5.5,0.5,10.2-2.4,14.1L193.2,165.7z"/>
				</g>
				<path class="st3" d="M196.2,157.3c0.5,0.5,1.2,1.2,1.5,2.1c0.6-0.8,0.9-1.7,1.2-2.7l-0.3,0.1c-0.2,0.3-0.5,0.6-0.7,0.9
					c-0.3-1.8-1.4-3.8-3.4-4.3l-0.2,0.4c1.8,0.4,2.8,2.2,3.1,3.9c-0.3-0.2-0.6-0.3-1-0.4L196.2,157.3z"/>
			</g>
			<g>
				<g>
					<path class="st6" d="M194,160.9c-3.6,0.2-7.9,2.5-7.5,4.5c0.4,1.8,4.7,3.3,6.6,0.3l3,2.7c-3.8,4.1-11.4,2-11.6-2.7
						C185.3,161.2,190.5,160.7,194,160.9z"/>
				</g>
			</g>
		</g>
	</g>
	<g>
		<g>
			<path class="st1" d="M250.8,121.5c6.2-7.6,14.4-16.5,25.3-15.2c11.2,1.3,15,13.5,14.8,23.2c-0.1,5.2-1.3,10.3-2.6,15.3"/>
			<g>
				<g>
					<path class="st6" d="M271.2,108.4c-8,0-15.6,6.1-21.9,11.8c5.4-6.5,11.7-13.8,21.2-15.7L271.2,108.4z"/>
				</g>
			</g>
			<g>
				<g>
					<path class="st6" d="M287.8,120.1c-1.8-7.9-8.7-13.5-16.6-11.7l-0.7-3.9c4.6-0.9,9.7-0.1,13.7,2.8c3.9,3,6.2,7.3,7.4,11.7
						L287.8,120.1z"/>
				</g>
				<path class="st3" d="M283.4,111.1c0.9,0.2,1.7,0.4,2.6,0.8c-0.1-0.9-0.3-1.9-0.7-2.9l-0.2,0.2l-0.1,1.1
					c-1.3-1.3-2.9-2.5-4.6-3.3l-0.2,0.4c1.7,0.7,3.2,1.9,4.5,3.2l-1.1,0.2L283.4,111.1z"/>
			</g>
			<g>
				<g>
					<path class="st6" d="M286.4,144.3c2.1-8.1,3.6-16.4,1.3-24.2l3.9-1.1C292.9,128.3,289.8,136.5,286.4,144.3z"/>
				</g>
			</g>
		</g>
	</g>
</g>
<g id="Layer_3">
	<text transform="matrix(1 0 0 1 134.0539 226.6976)" class="st8 st9">Deep Current</text>
	<text transform="matrix(1 0 0 1 154.3274 87.4437)" class="st8 st9">Surface Current</text>
	<text transform="matrix(1 0 0 1 7.9936 14.6857)" class="st8 st9">Deep Water Formation</text>
	<text transform="matrix(1 0 0 1 43.7391 161.8188)" class="st8 st9">Deep Water Formation</text>
</g>
</svg>
