<svg xmlns="http://www.w3.org/2000/svg" width="24" height="24" viewBox="0 0 24 24">
  <circle fill="#fff" cx="12" cy="12" r="11.8"/>
  <path fill="#0a28a3" d="M2 12c0 5.5 4.4 10 10 10s10-4.4 10-10S17.5 2 12 2 2 6.5 2 12zm8.5-8.7c-1 1-1.6 2.6 1.6 1.9 3.3-.7 6.7-.8 4.7 1.6-.9 1 .3.7 1.1.8.3.1 1.8.1 1.5.9-3.3-.3-9.5 2.9-11.2 6.5l-.2-.2a8.8 8.8 0 013.3-5c2.3-1.8 3.2-3.3.2-2.8-5.1.7-2.8-2.7-1-3.7zm5.4 7.5c4.2-1.5 4.5.1 3.5.8-1 .7-3.2 1.9-1.3 1.9 1.5 0 2.1 1.2-.4 3.8a8 8 0 01-7.5 2.2v-.1c5.3.4 7-3.2 3.6-3.5-2.8-.2-2.7-3.4 2.1-5.1z"/>
</svg>
