<?xml version="1.0" encoding="utf-8"?>
<!-- Generator: Adobe Illustrator 16.0.4, SVG Export Plug-In . SVG Version: 6.00 Build 0)  -->
<!DOCTYPE svg PUBLIC "-//W3C//DTD SVG 1.1//EN" "http://www.w3.org/Graphics/SVG/1.1/DTD/svg11.dtd">
<svg version="1.1" id="Laag_1" xmlns="http://www.w3.org/2000/svg" xmlns:xlink="http://www.w3.org/1999/xlink" x="0px" y="0px"
	 width="245.522px" height="341.975px" viewBox="855.899 324.933 245.522 341.975"
	 enable-background="new 855.899 324.933 245.522 341.975" xml:space="preserve">
<path fill="#0080BB" d="M1018.226,481.483c-100.091,35.288-103.298,101.374-46.837,105.865
	c69.935,5.774,34.646,81.483-75.709,72.501v2.566c12.189,3.208,25.664,4.491,38.496,4.491c46.195,0,87.899-17.965,118.696-49.403
	c52.611-53.253,40.421-78.275,9.624-78.918c-37.213,0,8.341-26.306,28.23-40.421C1112.541,484.05,1106.767,450.045,1018.226,481.483
	"/>
<path fill="#5E839B" d="M905.303,324.933c-37.213,20.531-86.616,91.107,21.815,74.426c62.235-9.624,44.271,21.173-3.851,59.669
	c-41.062,32.722-64.16,82.768-67.368,105.865l2.566,3.208c34.646-75.068,164.893-141.153,232.902-134.737
	c8.982-14.757-23.739-17.965-30.797-18.606c-17.323-1.925-42.346,5.133-23.739-16.04c42.346-49.403-28.23-46.837-98.166-32.08
	c-64.802,14.115-54.536-17.965-31.438-40.421h-1.926V324.933z"/>
</svg>
